<svg width="106" height="25" viewBox="0 0 106 25" fill="none" xmlns="http://www.w3.org/2000/svg">
<path d="M37.696 10.208V11.952H40.304V10.208H37.696ZM36.112 4.592V19.408H38.256V4.592H36.112ZM27.088 6.016V15.216H29.216V6.016H27.088ZM27.088 14.032V15.792H28.368C30.544 15.792 32.928 15.664 35.376 15.152L35.152 13.408C32.768 13.888 30.48 14.032 28.368 14.032H27.088ZM46.1268 5.584C43.8068 5.584 42.0308 7.104 42.0308 9.232C42.0308 11.376 43.8068 12.896 46.1268 12.896C48.4628 12.896 50.2068 11.376 50.2068 9.232C50.2068 7.104 48.4628 5.584 46.1268 5.584ZM46.1268 7.408C47.2628 7.408 48.1268 8.08 48.1268 9.232C48.1268 10.4 47.2628 11.072 46.1268 11.072C44.9908 11.072 44.1268 10.4 44.1268 9.232C44.1268 8.08 44.9908 7.408 46.1268 7.408ZM51.5988 4.592V19.456H53.7268V4.592H51.5988ZM41.6788 16.448C44.2388 16.448 47.7268 16.416 50.9428 15.776L50.7828 14.24C47.6628 14.704 44.0308 14.736 41.4228 14.736L41.6788 16.448ZM69.6139 4.608V13.152H71.7579V4.608H69.6139ZM71.1339 8.112V9.84H73.6939V8.112H71.1339ZM66.8939 13.424C63.8379 13.424 61.8699 14.56 61.8699 16.432C61.8699 18.32 63.8379 19.44 66.8939 19.44C69.9339 19.44 71.9019 18.32 71.9019 16.432C71.9019 14.56 69.9339 13.424 66.8939 13.424ZM66.8939 15.12C68.7659 15.12 69.8059 15.536 69.8059 16.432C69.8059 17.312 68.7659 17.744 66.8939 17.744C65.0059 17.744 63.9659 17.312 63.9659 16.432C63.9659 15.536 65.0059 15.12 66.8939 15.12ZM60.5739 10.688V12.384H61.8059C65.1499 12.384 66.8619 12.32 68.6699 11.92L68.4619 10.224C66.6859 10.608 65.0699 10.688 61.8059 10.688H60.5739ZM60.5739 5.6V11.84H62.6859V7.296H67.1979V5.6H60.5739ZM76.4286 5.424V7.12H85.7886V5.424H76.4286ZM74.7966 11.152V12.864H88.2046V11.152H74.7966ZM84.5406 5.424V6.704C84.5406 8.08 84.5406 9.552 84.0766 11.616L86.1726 11.808C86.6366 9.68 86.6366 8.112 86.6366 6.704V5.424H84.5406ZM76.4766 17.456V19.168H87.0526V17.456H76.4766ZM76.4766 14.128V17.632H78.5886V14.128H76.4766ZM91.5314 13.104V18.48H93.6594V14.592H101.243V13.104H91.5314ZM91.5314 17.776V19.264H101.547V17.776H91.5314ZM93.0034 15.456V16.896H101.115V15.456H93.0034ZM89.9314 5.392V11.984H97.0514V5.392H94.9394V7.216H92.0434V5.392H89.9314ZM92.0434 8.8H94.9394V10.336H92.0434V8.8ZM99.0354 4.608V12.512H101.163V4.608H99.0354ZM100.299 7.648V9.376H103.115V7.648H100.299Z" fill="#1F3A5E"/>
<path d="M17.2137 12.2647C16.9592 12.8754 16.5853 13.4004 16.1301 13.8242L14.1375 16.0628L14.0998 16.1092L12.4467 15.4202C12.0986 15.2751 11.6997 15.4377 11.5556 15.7834C11.4116 16.1291 11.5769 16.5269 11.925 16.672L13.2061 17.2059L9.51998 21.7299C8.80806 22.6036 7.38584 22.0109 7.50516 20.8902L8.27906 13.6212L8.46618 10.63C8.46308 10.5314 8.46324 10.4324 8.46672 10.3332L10.513 11.186C10.861 11.3311 11.26 11.1685 11.404 10.8228C11.5481 10.4771 11.3828 10.0793 11.0347 9.93425L8.72907 8.97331C8.75445 8.90277 8.7817 8.83249 8.81086 8.76253C9.77132 6.45805 12.431 5.37387 14.7513 6.34096C17.0717 7.30804 18.1742 9.96017 17.2137 12.2647Z" fill="#FF5F00"/>
<path d="M15.9798 3.44663C15.9532 3.23659 15.9076 3.02582 15.8419 2.81619C15.4689 1.62672 14.5376 0.76224 13.4254 0.419702C12.704 1.32331 12.4306 2.5571 12.8037 3.74616C13.1398 4.81741 13.9291 5.6251 14.8954 6.02543C15.8635 6.43753 16.9995 6.43177 18.003 5.9131C19.1104 5.34061 19.7943 4.2784 19.9278 3.12974C18.9017 2.58061 17.632 2.52824 16.5246 3.10074C16.3294 3.20161 16.1477 3.31764 15.9798 3.44663Z" fill="#3B879B"/>
</svg>
