<svg width="14" height="18" viewBox="0 0 14 18" fill="none" xmlns="http://www.w3.org/2000/svg">
<path d="M5.317 0.537018C5.2497 0.428238 5.12848 0.361678 4.99766 0.361678H1.39731C1.10783 0.361678 0.929032 0.667922 1.07797 0.908637L5.10003 7.40932C5.16734 7.5181 5.28856 7.58466 5.41938 7.58466H9.01973C9.30921 7.58466 9.48801 7.27842 9.33907 7.0377L5.317 0.537018Z" fill="#C52229"/>
<path fill-rule="evenodd" clip-rule="evenodd" d="M4.99763 0H1.39728C0.818327 0 0.460726 0.612489 0.758593 1.09392L4.78066 7.5946C4.91527 7.81216 5.15772 7.94528 5.41935 7.94528H9.0197C9.59865 7.94528 9.95625 7.33279 9.65838 6.85137L5.63632 0.350679C5.50171 0.133119 5.25926 0 4.99763 0ZM4.99766 0.361678C5.12848 0.361678 5.2497 0.428238 5.317 0.537018L9.33907 7.0377C9.48801 7.27842 9.30921 7.58466 9.01973 7.58466H5.41938C5.28856 7.58466 5.16734 7.5181 5.10003 7.40932L1.07797 0.908637C0.929032 0.667922 1.10783 0.361678 1.39731 0.361678H4.99766Z" fill="#9B0F15"/>
<path d="M9.19659 0.537018C9.26389 0.428238 9.38511 0.361678 9.51593 0.361678H13.1163C13.4058 0.361678 13.5846 0.667922 13.4356 0.908637L9.41356 7.40932C9.34625 7.5181 9.22503 7.58466 9.09421 7.58466H5.49386C5.20438 7.58466 5.02558 7.27842 5.17452 7.0377L9.19659 0.537018Z" fill="#F1333B"/>
<path fill-rule="evenodd" clip-rule="evenodd" d="M9.51596 0H13.1163C13.6953 0 14.0529 0.612489 13.755 1.09392L9.73293 7.5946C9.59832 7.81216 9.35588 7.94528 9.09424 7.94528H5.49389C4.91494 7.94528 4.55734 7.33279 4.85521 6.85137L8.87727 0.350679C9.01188 0.133119 9.25433 0 9.51596 0ZM9.51593 0.361678C9.38511 0.361678 9.26389 0.428238 9.19659 0.537018L5.17452 7.0377C5.02558 7.27842 5.20438 7.58466 5.49386 7.58466H9.09421C9.22503 7.58466 9.34625 7.5181 9.41356 7.40932L13.4356 0.908637C13.5846 0.667922 13.4058 0.361678 13.1163 0.361678H9.51593Z" fill="#9B0F15"/>
<path d="M13.5169 11.2114C13.5169 14.7019 10.599 17.5315 6.99967 17.5315C3.4003 17.5315 0.482429 14.7019 0.482429 11.2114C0.482429 7.72091 3.4003 4.8913 6.99967 4.8913C10.599 4.8913 13.5169 7.72091 13.5169 11.2114Z" fill="#FFBB0D"/>
<path fill-rule="evenodd" clip-rule="evenodd" d="M14 11.2117C14 14.9608 10.866 18 7 18C3.13401 18 0 14.9608 0 11.2117C0 7.46267 3.13401 4.42346 7 4.42346C10.866 4.42346 14 7.46267 14 11.2117ZM6.99967 17.5315C10.599 17.5315 13.5169 14.7019 13.5169 11.2114C13.5169 7.72091 10.599 4.8913 6.99967 4.8913C3.4003 4.8913 0.482429 7.72091 0.482429 11.2114C0.482429 14.7019 3.4003 17.5315 6.99967 17.5315Z" fill="#E89B05"/>
<path fill-rule="evenodd" clip-rule="evenodd" d="M0.965658 11.4459C0.832348 11.4459 0.724279 11.3411 0.724279 11.2119C0.724279 7.85065 3.53408 5.12583 7.00014 5.12583C7.13345 5.12583 7.24152 5.23064 7.24152 5.35991C7.24152 5.48919 7.13345 5.59399 7.00014 5.59399C3.8007 5.59399 1.20704 8.1092 1.20704 11.2119C1.20704 11.3411 1.09897 11.4459 0.965658 11.4459Z" fill="#E8AA0A"/>
<path fill-rule="evenodd" clip-rule="evenodd" d="M13.035 10.9781C13.1683 10.9781 13.2763 11.0829 13.2763 11.2122C13.2763 14.5734 10.4665 17.2982 7.00047 17.2982C6.86716 17.2982 6.75909 17.1934 6.75909 17.0641C6.75909 16.9349 6.86716 16.8301 7.00047 16.8301C10.1999 16.8301 12.7936 14.3149 12.7936 11.2122C12.7936 11.0829 12.9016 10.9781 13.035 10.9781Z" fill="#E8AA0A"/>
<path d="M11.828 11.2121C11.828 13.7977 9.66663 15.8937 7.00042 15.8937C4.33422 15.8937 2.17284 13.7977 2.17284 11.2121C2.17284 8.62659 4.33422 6.53058 7.00042 6.53058C9.66663 6.53058 11.828 8.62659 11.828 11.2121Z" fill="#FFDD28"/>
<path fill-rule="evenodd" clip-rule="evenodd" d="M12.3098 11.2112C12.3098 14.0553 9.9323 16.3609 6.99948 16.3609C4.06666 16.3609 1.68914 14.0553 1.68914 11.2112C1.68914 8.36712 4.06666 6.06151 6.99948 6.06151C9.9323 6.06151 12.3098 8.36712 12.3098 11.2112ZM6.99948 15.8928C9.66568 15.8928 11.8271 13.7968 11.8271 11.2112C11.8271 8.62567 9.66568 6.52966 6.99948 6.52966C4.33328 6.52966 2.1719 8.62567 2.1719 11.2112C2.1719 13.7968 4.33328 15.8928 6.99948 15.8928Z" fill="#E89B05"/>
<path fill-rule="evenodd" clip-rule="evenodd" d="M6.99972 15.1908C9.26599 15.1908 11.1032 13.4092 11.1032 11.2115C11.1032 11.0822 11.2112 10.9774 11.3445 10.9774C11.4779 10.9774 11.5859 11.0822 11.5859 11.2115C11.5859 13.6677 9.53261 15.6589 6.99972 15.6589C6.86641 15.6589 6.75834 15.5541 6.75834 15.4249C6.75834 15.2956 6.86641 15.1908 6.99972 15.1908Z" fill="#ECC704"/>
<path fill-rule="evenodd" clip-rule="evenodd" d="M6.99962 7.23204C4.73335 7.23204 2.89617 9.01364 2.89617 11.2114C2.89617 11.3406 2.78811 11.4454 2.65479 11.4454C2.52148 11.4454 2.41342 11.3406 2.41342 11.2114C2.41342 8.75509 4.46673 6.76388 6.99962 6.76388C7.13293 6.76388 7.241 6.86868 7.241 6.99796C7.241 7.12724 7.13293 7.23204 6.99962 7.23204Z" fill="#FFEF9C"/>
<path d="M7.90243 13.4922H6.93687V9.88291L5.78421 10.2296V9.46819L7.79886 8.76836H7.90243V13.4922Z" fill="#FFEF9C"/>
<path fill-rule="evenodd" clip-rule="evenodd" d="M8.47258 13.4922C8.47258 13.7976 8.21729 14.0451 7.90237 14.0451H6.93681C6.6219 14.0451 6.36661 13.7976 6.36661 13.4922V10.6333L5.95307 10.7577C5.78002 10.8097 5.59177 10.7789 5.44591 10.6747C5.30006 10.5705 5.21396 10.4052 5.21396 10.2295V9.46814C5.21396 9.23464 5.3652 9.02631 5.59187 8.94757L7.60651 8.24774C7.66821 8.22631 7.73326 8.21535 7.7988 8.21535H7.90237C8.21729 8.21535 8.47258 8.46291 8.47258 8.7683V13.4922ZM6.93687 9.88291V13.4922H7.90243V8.76836H7.79886L5.78421 9.46819V10.2296L6.93687 9.88291Z" fill="#E89B05"/>
</svg>
