<svg width="14" height="19" viewBox="0 0 14 19" fill="none" xmlns="http://www.w3.org/2000/svg">
<path d="M4.94472 0.55721C4.8734 0.444168 4.74494 0.375 4.60632 0.375H0.791097C0.484345 0.375 0.294874 0.693244 0.452696 0.943391L4.7148 7.6988C4.78612 7.81184 4.91458 7.88101 5.0532 7.88101H8.86842C9.17517 7.88101 9.36465 7.56276 9.20682 7.31261L4.94472 0.55721Z" fill="#C52229"/>
<path fill-rule="evenodd" clip-rule="evenodd" d="M4.6056 0H0.790378C0.176876 0 -0.202066 0.636488 0.113578 1.13678L4.37568 7.89219C4.51832 8.11827 4.77524 8.25661 5.05248 8.25661H8.86771C9.48121 8.25661 9.86015 7.62012 9.54451 7.11983L5.2824 0.36442C5.13976 0.138335 4.88285 0 4.6056 0ZM4.6056 0.3753C4.74422 0.3753 4.87268 0.444468 4.944 0.55751L9.20611 7.31292C9.36393 7.56306 9.17446 7.88131 8.86771 7.88131H5.05248C4.91386 7.88131 4.7854 7.81214 4.71408 7.6991L0.451978 0.943691C0.294156 0.693544 0.483627 0.3753 0.790378 0.3753H4.6056Z" fill="#9B0F15"/>
<path d="M9.05528 0.55721C9.1266 0.444168 9.25506 0.375 9.39368 0.375H13.2089C13.5157 0.375 13.7051 0.693244 13.5473 0.943391L9.2852 7.6988C9.21388 7.81184 9.08542 7.88101 8.9468 7.88101H5.13158C4.82483 7.88101 4.63535 7.56276 4.79318 7.31261L9.05528 0.55721Z" fill="#F1333B"/>
<path fill-rule="evenodd" clip-rule="evenodd" d="M9.39245 0H13.2077C13.8212 0 14.2001 0.636488 13.8845 1.13678L9.62236 7.89219C9.47972 8.11827 9.22281 8.25661 8.94556 8.25661H5.13034C4.51684 8.25661 4.1379 7.62012 4.45354 7.11983L8.71564 0.36442C8.85829 0.138335 9.1152 0 9.39245 0ZM9.39245 0.3753C9.25382 0.3753 9.12537 0.444468 9.05405 0.55751L4.79194 7.31292C4.63412 7.56306 4.82359 7.88131 5.13034 7.88131H8.94556C9.08419 7.88131 9.21264 7.81214 9.28396 7.6991L13.5461 0.943691C13.7039 0.693544 13.5144 0.3753 13.2077 0.3753H9.39245Z" fill="#9B0F15"/>
<path d="M13.5169 11.0768C13.5169 14.6367 10.599 17.5227 6.99966 17.5227C3.40029 17.5227 0.482422 14.6367 0.482422 11.0768C0.482422 7.51679 3.40029 4.63086 6.99966 4.63086C10.599 4.63086 13.5169 7.51679 13.5169 11.0768Z" fill="#DCA16A"/>
<path fill-rule="evenodd" clip-rule="evenodd" d="M14 11.0777C14 14.9013 10.866 18.001 7 18.001C3.13401 18.001 0 14.9013 0 11.0777C0 7.254 3.13401 4.1543 7 4.1543C10.866 4.1543 14 7.254 14 11.0777ZM7 17.5236C10.5994 17.5236 13.5172 14.6376 13.5172 11.0777C13.5172 7.5177 10.5994 4.63177 7 4.63177C3.40063 4.63177 0.482759 7.5177 0.482759 11.0777C0.482759 14.6376 3.40063 17.5236 7 17.5236Z" fill="#C38144"/>
<path fill-rule="evenodd" clip-rule="evenodd" d="M0.964372 11.3145C0.831062 11.3145 0.722993 11.2076 0.722993 11.0757C0.722993 7.64759 3.53279 4.86855 6.99886 4.86855C7.13217 4.86855 7.24023 4.97544 7.24023 5.10729C7.24023 5.23914 7.13217 5.34603 6.99886 5.34603C3.79941 5.34603 1.20575 7.9113 1.20575 11.0757C1.20575 11.2076 1.09768 11.3145 0.964372 11.3145Z" fill="#F0B57F"/>
<path fill-rule="evenodd" clip-rule="evenodd" d="M13.0356 10.8418C13.1689 10.8418 13.277 10.9487 13.277 11.0805C13.277 14.5087 10.4672 17.2877 7.00114 17.2877C6.86783 17.2877 6.75977 17.1808 6.75977 17.049C6.75977 16.9171 6.86783 16.8102 7.00114 16.8102C10.2006 16.8102 12.7942 14.245 12.7942 11.0805C12.7942 10.9487 12.9023 10.8418 13.0356 10.8418Z" fill="#CF945D"/>
<path d="M11.827 11.0775C11.827 13.7145 9.66566 15.8522 6.99946 15.8522C4.33326 15.8522 2.17188 13.7145 2.17188 11.0775C2.17188 8.44046 4.33326 6.30273 6.99946 6.30273C9.66566 6.30273 11.827 8.44046 11.827 11.0775Z" fill="#F7BA82"/>
<path fill-rule="evenodd" clip-rule="evenodd" d="M12.3101 11.0784C12.3101 13.9791 9.93262 16.3306 6.9998 16.3306C4.06698 16.3306 1.68945 13.9791 1.68945 11.0784C1.68945 8.17767 4.06698 5.82617 6.9998 5.82617C9.93262 5.82617 12.3101 8.17767 12.3101 11.0784ZM6.9998 15.8531C9.666 15.8531 11.8274 13.7154 11.8274 11.0784C11.8274 8.44137 9.666 6.30365 6.9998 6.30365C4.3336 6.30365 2.17221 8.44137 2.17221 11.0784C2.17221 13.7154 4.3336 15.8531 6.9998 15.8531Z" fill="#C38144"/>
<path fill-rule="evenodd" clip-rule="evenodd" d="M6.99973 15.1358C9.266 15.1358 11.1032 13.3187 11.1032 11.0773C11.1032 10.9454 11.2112 10.8385 11.3446 10.8385C11.4779 10.8385 11.5859 10.9454 11.5859 11.0773C11.5859 13.5824 9.53262 15.6133 6.99973 15.6133C6.86642 15.6133 6.75835 15.5064 6.75835 15.3745C6.75835 15.2427 6.86642 15.1358 6.99973 15.1358Z" fill="#E6A66C"/>
<path fill-rule="evenodd" clip-rule="evenodd" d="M7.00027 7.01849C4.734 7.01849 2.89682 8.83556 2.89682 11.077C2.89682 11.2089 2.78875 11.3158 2.65544 11.3158C2.52213 11.3158 2.41406 11.2089 2.41406 11.077C2.41406 8.57185 4.46738 6.54102 7.00027 6.54102C7.13358 6.54102 7.24165 6.6479 7.24165 6.77975C7.24165 6.9116 7.13358 7.01849 7.00027 7.01849Z" fill="#FFD5AE"/>
<path d="M6.744 10.4793H7.2815C7.53745 10.4793 7.72709 10.4198 7.85041 10.3008C7.97374 10.1818 8.0354 10.0238 8.0354 9.82687C8.0354 9.63644 7.97374 9.48821 7.85041 9.38217C7.72942 9.27613 7.56189 9.22312 7.34782 9.22312C7.15469 9.22312 6.99297 9.27289 6.86267 9.37243C6.73237 9.46981 6.66721 9.59749 6.66721 9.75546H5.65853C5.65853 9.50876 5.7295 9.28804 5.87143 9.09328C6.0157 8.89635 6.21581 8.74271 6.47176 8.63234C6.73004 8.52198 7.01391 8.4668 7.32338 8.4668C7.86088 8.4668 8.28204 8.5869 8.58686 8.8271C8.89168 9.06514 9.04408 9.39407 9.04408 9.81389C9.04408 10.0303 8.97312 10.2294 8.83118 10.4112C8.68924 10.5929 8.50309 10.7325 8.27274 10.8299C8.55894 10.9251 8.77184 11.0679 8.91145 11.2584C9.05339 11.4488 9.12436 11.6738 9.12436 11.9335C9.12436 12.3533 8.95915 12.6898 8.62874 12.943C8.30066 13.1962 7.86554 13.3228 7.32338 13.3228C6.81613 13.3228 6.40079 13.1984 6.07736 12.9495C5.75626 12.7007 5.5957 12.3717 5.5957 11.9627H6.60439C6.60439 12.1402 6.67536 12.2852 6.8173 12.3977C6.96156 12.5102 7.1384 12.5665 7.34782 12.5665C7.58748 12.5665 7.77479 12.5081 7.90975 12.3912C8.04703 12.2722 8.11567 12.1153 8.11567 11.9205C8.11567 11.4488 7.83645 11.2129 7.27801 11.2129H6.744V10.4793Z" fill="#FFD5AE"/>
<path fill-rule="evenodd" clip-rule="evenodd" d="M6.17682 10.3087H5.6585C5.32952 10.3087 5.06282 10.0607 5.06282 9.75476C5.06282 9.40293 5.16618 9.07285 5.37832 8.78176L5.37913 8.78065C5.58998 8.49282 5.87778 8.27712 6.22117 8.12905L6.22303 8.12824C6.56604 7.98167 6.93575 7.91211 7.32335 7.91211C7.95244 7.91211 8.52639 8.05313 8.9709 8.40295C9.42882 8.76104 9.63972 9.25471 9.63972 9.81319C9.63972 10.1512 9.52595 10.4634 9.31314 10.736C9.29936 10.7536 9.2853 10.771 9.27095 10.788C9.31782 10.8367 9.36169 10.8886 9.40226 10.9438C9.62059 11.2375 9.72 11.5752 9.72 11.9328C9.72 12.5075 9.48387 13.0045 9.00834 13.3692C8.54712 13.7248 7.9655 13.8761 7.32335 13.8761C6.70749 13.8761 6.1489 13.7229 5.69761 13.3757L5.69599 13.3744C5.23116 13.0142 5 12.5256 5 11.962C5 11.6561 5.26669 11.4081 5.59567 11.4081H6.18659C6.16184 11.3472 6.1483 11.2812 6.1483 11.2122V10.4786C6.1483 10.4194 6.1583 10.3623 6.17682 10.3087ZM7.16174 11.7662C7.18649 11.8271 7.20003 11.8931 7.20003 11.962C7.20003 11.9667 7.20024 11.9702 7.20049 11.9728C7.20098 11.9732 7.20151 11.9736 7.2021 11.9741C7.2269 11.993 7.26394 12.0118 7.34778 12.0118C7.41648 12.0118 7.45741 12.0034 7.4786 11.9967C7.49624 11.9912 7.50204 11.9866 7.50354 11.9853M7.16174 11.7662H7.27798C7.42602 11.7662 7.48635 11.7899 7.50283 11.7981C7.5032 11.7989 7.50362 11.7999 7.50408 11.8011C7.50965 11.8152 7.51997 11.8513 7.51997 11.9198C7.51997 11.9563 7.51371 11.9718 7.51242 11.9748C7.51162 11.9766 7.51102 11.9775 7.51047 11.9783C7.50989 11.979 7.50789 11.9815 7.50354 11.9853M8.62871 12.9423C8.95912 12.6891 9.12433 12.3526 9.12433 11.9328C9.12433 11.6731 9.05336 11.4481 8.91142 11.2577C8.88844 11.2263 8.86347 11.1962 8.83651 11.1675C8.69972 11.0215 8.51179 10.9087 8.2727 10.8292C8.48816 10.7381 8.66494 10.6101 8.80305 10.4452C8.8126 10.4338 8.82196 10.4222 8.83115 10.4105C8.97308 10.2287 9.04405 10.0296 9.04405 9.81319C9.04405 9.39337 8.89164 9.06444 8.58683 8.8264C8.28201 8.5862 7.86085 8.46609 7.32335 8.46609C7.01388 8.46609 6.73001 8.52128 6.47173 8.63164C6.21578 8.742 6.01567 8.89565 5.8714 9.09257C5.84574 9.12779 5.82239 9.16386 5.80137 9.20077C5.70612 9.36801 5.6585 9.55267 5.6585 9.75476H6.66718C6.66718 9.59679 6.73233 9.46911 6.86264 9.37173C6.99294 9.27219 7.15466 9.22241 7.34778 9.22241C7.56185 9.22241 7.72939 9.27543 7.85038 9.38147C7.9737 9.4875 8.03537 9.63574 8.03537 9.82617C8.03537 10.0231 7.9737 10.1811 7.85038 10.3001C7.72706 10.4191 7.53742 10.4786 7.28147 10.4786H6.74397V11.2122H7.27798C7.83642 11.2122 8.11564 11.4481 8.11564 11.9198C8.11564 12.1146 8.047 12.2715 7.90972 12.3905C7.77476 12.5074 7.58745 12.5658 7.34778 12.5658C7.13837 12.5658 6.96153 12.5095 6.81726 12.397C6.67533 12.2845 6.60436 12.1395 6.60436 11.962H5.59567C5.59567 12.1668 5.6359 12.3514 5.71635 12.516C5.79663 12.6803 5.91695 12.8245 6.07733 12.9488C6.40076 13.1977 6.8161 13.3221 7.32335 13.3221C7.86551 13.3221 8.30063 13.1955 8.62871 12.9423ZM7.23433 9.92463C7.24935 9.88121 7.25877 9.83546 7.26179 9.7881C7.27755 9.78207 7.3036 9.7764 7.34778 9.7764C7.39528 9.7764 7.42319 9.78153 7.43673 9.78509C7.43823 9.79378 7.43969 9.80714 7.43969 9.82617C7.43969 9.87101 7.4327 9.89434 7.4292 9.90331C7.42837 9.90543 7.42761 9.90713 7.42687 9.90855C7.42635 9.90872 7.4258 9.90889 7.42522 9.90908C7.40614 9.91506 7.36184 9.92463 7.28147 9.92463H7.23433Z" fill="#C28044"/>
</svg>
