<svg width="24" height="32" viewBox="0 0 24 32" fill="none" xmlns="http://www.w3.org/2000/svg">
<rect x="24" y="32" width="24" height="32" rx="8" transform="rotate(-180 24 32)" fill="#FFB98E"/>
<path d="M8.75079 24.5001C8.40456 24.5003 8.06606 24.3978 7.77813 24.2055C7.4902 24.0132 7.26577 23.7398 7.13325 23.42C7.00073 23.1001 6.96608 22.7481 7.03367 22.4085C7.10126 22.0689 7.26806 21.7571 7.51296 21.5123L13.2798 15.7501L7.51763 9.98798C7.18933 9.65984 7.00484 9.21473 7.00473 8.75056C7.00462 8.28639 7.1889 7.84119 7.51704 7.5129C7.84518 7.1846 8.2903 7.00011 8.75446 7C9.21863 6.99989 9.66383 7.18418 9.99213 7.51232L16.9921 14.5123C17.1547 14.6748 17.2838 14.8678 17.3718 15.0802C17.4598 15.2926 17.5051 15.5202 17.5051 15.7501C17.5051 15.9801 17.4598 16.2077 17.3718 16.4201C17.2838 16.6325 17.1547 16.8255 16.9921 16.988L9.99212 23.988C9.82913 24.1509 9.63556 24.28 9.42254 24.3679C9.20952 24.4558 8.98123 24.5007 8.75079 24.5001Z" fill="white"/>
</svg>
