<svg width="158" height="12" viewBox="0 0 158 12" fill="none" xmlns="http://www.w3.org/2000/svg">
<rect opacity="0.2" x="51" y="1" width="10" height="10" rx="1" fill="#FF5F00"/>
<rect x="37" y="1" width="10" height="10" rx="1" fill="#E0E0E0"/>
<rect opacity="0.4" x="65" y="1" width="10" height="10" rx="1" fill="#FF5F00"/>
<rect opacity="0.6" x="79" y="1" width="10" height="10" rx="1" fill="#FF5F00"/>
<rect x="93" y="1" width="10" height="10" rx="1" fill="#FF5F00" fill-opacity="0.8"/>
<rect x="107" y="1" width="10" height="10" rx="1" fill="#FF5F00"/>
<rect x="107" y="1" width="10" height="10" rx="1" fill="#FF5F00"/>
<path d="M6.55039 5.05469V6.35547C6.55039 7.05469 6.48789 7.64453 6.36289 8.125C6.23789 8.60547 6.0582 8.99219 5.82383 9.28516C5.58945 9.57812 5.30625 9.79102 4.97422 9.92383C4.64609 10.0527 4.275 10.1172 3.86094 10.1172C3.53281 10.1172 3.23008 10.0762 2.95273 9.99414C2.67539 9.91211 2.42539 9.78125 2.20273 9.60156C1.98398 9.41797 1.79648 9.17969 1.64023 8.88672C1.48398 8.59375 1.36484 8.23828 1.28281 7.82031C1.20078 7.40234 1.15977 6.91406 1.15977 6.35547V5.05469C1.15977 4.35547 1.22227 3.76953 1.34727 3.29688C1.47617 2.82422 1.65781 2.44531 1.89219 2.16016C2.12656 1.87109 2.40781 1.66406 2.73594 1.53906C3.06797 1.41406 3.43906 1.35156 3.84922 1.35156C4.18125 1.35156 4.48594 1.39258 4.76328 1.47461C5.04453 1.55273 5.29453 1.67969 5.51328 1.85547C5.73203 2.02734 5.91758 2.25781 6.06992 2.54688C6.22617 2.83203 6.34531 3.18164 6.42734 3.5957C6.50937 4.00977 6.55039 4.49609 6.55039 5.05469ZM5.46055 6.53125V4.87305C5.46055 4.49023 5.43711 4.1543 5.39023 3.86523C5.34727 3.57227 5.28281 3.32227 5.19687 3.11523C5.11094 2.9082 5.00156 2.74023 4.86875 2.61133C4.73984 2.48242 4.58945 2.38867 4.41758 2.33008C4.24961 2.26758 4.06016 2.23633 3.84922 2.23633C3.59141 2.23633 3.36289 2.28516 3.16367 2.38281C2.96445 2.47656 2.79648 2.62695 2.65977 2.83398C2.52695 3.04102 2.42539 3.3125 2.35508 3.64844C2.28477 3.98437 2.24961 4.39258 2.24961 4.87305V6.53125C2.24961 6.91406 2.27109 7.25195 2.31406 7.54492C2.36094 7.83789 2.4293 8.0918 2.51914 8.30664C2.60898 8.51758 2.71836 8.69141 2.84727 8.82812C2.97617 8.96484 3.12461 9.06641 3.29258 9.13281C3.46445 9.19531 3.65391 9.22656 3.86094 9.22656C4.12656 9.22656 4.35898 9.17578 4.5582 9.07422C4.75742 8.97266 4.92344 8.81445 5.05625 8.59961C5.19297 8.38086 5.29453 8.10156 5.36094 7.76172C5.42734 7.41797 5.46055 7.00781 5.46055 6.53125ZM10.7919 1.024V2.968C10.7919 5.02 9.48394 7.096 7.87594 7.864L8.48794 8.68C10.2639 7.78 11.6079 5.464 11.6079 2.968V1.024H10.7919ZM10.9599 1.024V2.968C10.9599 5.38 12.3159 7.612 14.0799 8.476L14.6799 7.684C13.0719 6.94 11.7759 4.948 11.7759 2.968V1.024H10.9599ZM15.8079 0.0759997V10.948H16.8039V0.0759997H15.8079ZM26.491 0.0879996V8.02H27.487V0.0879996H26.491ZM27.175 3.376V4.204H29.095V3.376H27.175ZM23.527 0.927999V1.36C23.527 3.448 21.811 5.128 19.075 5.968L19.507 6.784C22.615 5.788 24.583 3.736 24.583 0.927999H23.527ZM19.519 0.927999V1.744H24.031V0.927999H19.519ZM20.719 9.88V10.696H27.967V9.88H20.719ZM20.719 7.216V10.204H21.715V7.216H20.719Z" fill="#282828"/>
<path d="M126.332 1.42188V10H125.248V2.77539L123.063 3.57227V2.59375L126.163 1.42188H126.332ZM130.991 5.93945L130.124 5.7168L130.552 1.46875H134.929V2.4707H131.471L131.214 4.79102C131.37 4.70117 131.567 4.61719 131.805 4.53906C132.048 4.46094 132.325 4.42188 132.638 4.42188C133.032 4.42188 133.386 4.49023 133.698 4.62695C134.011 4.75977 134.276 4.95117 134.495 5.20117C134.718 5.45117 134.888 5.75195 135.005 6.10352C135.122 6.45508 135.18 6.84766 135.18 7.28125C135.18 7.69141 135.124 8.06836 135.011 8.41211C134.901 8.75586 134.735 9.05664 134.513 9.31445C134.29 9.56836 134.009 9.76562 133.669 9.90625C133.333 10.0469 132.936 10.1172 132.479 10.1172C132.136 10.1172 131.809 10.0703 131.501 9.97656C131.196 9.87891 130.923 9.73242 130.68 9.53711C130.442 9.33789 130.247 9.0918 130.095 8.79883C129.946 8.50195 129.852 8.1543 129.813 7.75586H130.845C130.891 8.07617 130.985 8.3457 131.126 8.56445C131.266 8.7832 131.45 8.94922 131.677 9.0625C131.907 9.17188 132.175 9.22656 132.479 9.22656C132.737 9.22656 132.966 9.18164 133.165 9.0918C133.364 9.00195 133.532 8.87305 133.669 8.70508C133.805 8.53711 133.909 8.33398 133.979 8.0957C134.054 7.85742 134.091 7.58984 134.091 7.29297C134.091 7.02344 134.054 6.77344 133.979 6.54297C133.905 6.3125 133.794 6.11133 133.645 5.93945C133.501 5.76758 133.323 5.63477 133.112 5.54102C132.901 5.44336 132.659 5.39453 132.386 5.39453C132.022 5.39453 131.747 5.44336 131.559 5.54102C131.376 5.63867 131.186 5.77148 130.991 5.93945ZM139.217 1.024V2.968C139.217 5.02 137.909 7.096 136.301 7.864L136.913 8.68C138.689 7.78 140.033 5.464 140.033 2.968V1.024H139.217ZM139.385 1.024V2.968C139.385 5.38 140.741 7.612 142.505 8.476L143.105 7.684C141.497 6.94 140.201 4.948 140.201 2.968V1.024H139.385ZM144.233 0.0759997V10.948H145.229V0.0759997H144.233ZM154.916 0.0879996V8.02H155.912V0.0879996H154.916ZM155.6 3.376V4.204H157.52V3.376H155.6ZM151.952 0.927999V1.36C151.952 3.448 150.236 5.128 147.5 5.968L147.932 6.784C151.04 5.788 153.008 3.736 153.008 0.927999H151.952ZM147.944 0.927999V1.744H152.456V0.927999H147.944ZM149.144 9.88V10.696H156.392V9.88H149.144ZM149.144 7.216V10.204H150.14V7.216H149.144Z" fill="#282828"/>
</svg>
