<svg width="90" height="24" viewBox="0 0 90 24" fill="none" xmlns="http://www.w3.org/2000/svg">
<path d="M30.816 5.04C28.56 5.04 26.864 6.448 26.864 8.432C26.864 10.4 28.56 11.808 30.816 11.808C33.072 11.808 34.768 10.4 34.768 8.432C34.768 6.448 33.072 5.04 30.816 5.04ZM30.816 6.768C31.904 6.768 32.704 7.376 32.704 8.432C32.704 9.488 31.904 10.096 30.816 10.096C29.728 10.096 28.912 9.488 28.912 8.432C28.912 7.376 29.728 6.768 30.816 6.768ZM36.816 4.608V12.016H38.96V4.608H36.816ZM29.072 12.624V14.272H36.848V15.152H29.104V18.48H31.184V16.688H38.96V12.624H29.072ZM29.104 17.616V19.264H39.328V17.616H29.104ZM48.5108 6.464V8.064H52.0948V6.464H48.5108ZM48.5108 9.168V10.768H52.0948V9.168H48.5108ZM51.6308 4.608V12.208H53.7588V4.608H51.6308ZM43.9668 12.784V14.416H51.6468V15.216H43.9828V18.624H46.0948V16.752H53.7588V12.784H43.9668ZM43.9828 17.616V19.264H54.1748V17.616H43.9828ZM41.9828 5.216V11.808H48.9908V5.216H46.9108V6.944H44.0948V5.216H41.9828ZM44.0948 8.544H46.9108V10.144H44.0948V8.544ZM60.0459 12.24V13.904H73.4539V12.24H60.0459ZM65.6779 10.656V12.848H67.8059V10.656H65.6779ZM61.7099 9.728V11.344H72.0299V9.728H61.7099ZM61.7099 4.976V10.64H63.8219V6.592H71.9179V4.976H61.7099ZM63.2299 7.376V8.928H71.5819V7.376H63.2299ZM66.7339 14.56C63.4699 14.56 61.5819 15.424 61.5819 16.992C61.5819 18.576 63.4699 19.424 66.7339 19.424C69.9819 19.424 71.8699 18.576 71.8699 16.992C71.8699 15.424 69.9819 14.56 66.7339 14.56ZM66.7339 16.128C68.7819 16.128 69.7259 16.384 69.7259 16.992C69.7259 17.616 68.7819 17.872 66.7339 17.872C64.6699 17.872 63.7259 17.616 63.7259 16.992C63.7259 16.384 64.6699 16.128 66.7339 16.128ZM80.4926 8.512V10.208H83.5006V8.512H80.4926ZM80.4126 12.208V13.904H83.4366V12.208H80.4126ZM85.5166 4.608V19.424H87.5486V4.608H85.5166ZM82.4606 4.928V18.768H84.4446V4.928H82.4606ZM79.1166 6.352V6.784C79.1166 10.368 77.9166 12.832 74.5726 14.864L75.7726 16.352C79.9006 13.92 81.1646 10.56 81.1646 6.352H79.1166ZM75.4206 6.352V8.048H79.8366V6.352H75.4206Z" fill="#1F3A5E"/>
<path d="M5 15L9 11L13 15L19 9" stroke="#1F3A5E" stroke-width="2" stroke-miterlimit="5.759" stroke-linecap="round" stroke-linejoin="round"/>
<path d="M16 9H19V12" stroke="#1F3A5E" stroke-width="2" stroke-linecap="round" stroke-linejoin="round"/>
</svg>
