<svg width="32" height="28" viewBox="0 0 32 28" fill="none" xmlns="http://www.w3.org/2000/svg">
<rect width="24" height="24" transform="translate(4 2)" fill="white" fill-opacity="0.01"/>
<path fill-rule="evenodd" clip-rule="evenodd" d="M8.02026 21.23C7.98715 21.392 7.99472 21.5597 8.0423 21.718C8.08988 21.8764 8.17598 22.0205 8.29289 22.1374C8.40981 22.2543 8.55389 22.3404 8.71224 22.388C8.87059 22.4355 9.03826 22.4431 9.20026 22.41L13.0103 21.63L8.80026 17.42L8.02026 21.23ZM23.8443 8.707L21.7243 6.585C21.5384 6.39908 21.3176 6.2517 21.0746 6.15131C20.8316 6.05092 20.5712 5.9995 20.3083 6C19.7963 6 19.2843 6.195 18.8933 6.585L9.13626 16.343L14.0863 21.293L23.8433 11.535C24.2182 11.1599 24.4288 10.6513 24.4288 10.121C24.4288 9.59068 24.2182 9.08206 23.8433 8.707H23.8443Z" fill="#1F3A5E"/>
<line x1="6" y1="25.5" x2="26" y2="25.5" stroke="#1F3A5E"/>
</svg>
