<svg width="236" height="263" viewBox="0 0 236 263" fill="none" xmlns="http://www.w3.org/2000/svg">
<path d="M192.634 163.991C189.766 164.397 187.683 150.956 187 144.185C202.161 142.966 207.317 148.078 208 150.787C207.59 156.068 197.585 161.79 192.634 163.991Z" fill="#FFF9D9"/>
<path d="M191.388 163.559C191.388 163.559 207.714 159.303 207.295 151.525C206.835 143.021 187.065 143.382 187.065 143.382" stroke="#4F4F4F"/>
<g filter="url(#filter0_d_1761_8317)">
<path d="M187.049 128.449C187.049 175.266 235.667 261.215 102.278 249.995C-34.8521 259.968 18.2866 175.266 18.2866 128.449C18.2866 81.631 55.46 43.6777 102.278 43.6777C149.095 43.6777 187.049 81.631 187.049 128.449Z" fill="#FFF9D9"/>
</g>
<path d="M55.5273 173.705C55.5273 173.705 71.1155 167.249 75.4734 173.705C80.238 180.764 64.2538 192.405 64.2538 192.405" stroke="#4F4F4F"/>
<circle cx="83.576" cy="97.9021" r="13.0896" fill="white"/>
<circle cx="86.0685" cy="96.6525" r="9.34974" fill="#282828"/>
<circle cx="120.978" cy="97.9021" r="13.0896" fill="white"/>
<circle cx="123.471" cy="96.6525" r="9.34974" fill="#282828"/>
<path d="M31.8477 128.443C39.3274 145.896 63.0134 154.623 105.399 154.623C140.305 154.623 160.251 146.442 173.964 130.08" stroke="#4F4F4F" stroke-width="4" stroke-linecap="round"/>
<rect x="91.6855" y="148.391" width="24.9326" height="12.4663" rx="4" fill="#4F4F4F"/>
<path d="M187.053 128.444L173.963 132.184C168.353 68.8065 127.228 73.9362 101.657 74.216C73.967 74.5189 36.6074 69.2294 31.8469 132.184L18.291 128.444C18.291 81.6267 44.9365 39.9336 101.657 39.9336C160.873 39.9336 187.053 81.6267 187.053 128.444Z" fill="#FF5F00"/>
<path d="M102.386 53.5918C103.018 52.9353 104.127 53.397 104.107 54.308L104.097 54.7372C104.088 55.1492 104.332 55.5247 104.712 55.6831L105.015 55.8093C105.879 56.1688 105.723 57.4368 104.798 57.5766V57.5766C104.354 57.6437 104.022 58.0204 104.012 58.4695L104.011 58.509C103.99 59.4368 102.805 59.8095 102.256 59.0607L101.889 58.5586C101.669 58.2583 101.301 58.1049 100.933 58.1605L100.317 58.2534C99.3999 58.392 98.829 57.2881 99.4726 56.6195L99.4999 56.591C99.8115 56.2673 99.8452 55.7665 99.5798 55.4041V55.4041C99.0272 54.6491 99.8173 53.6452 100.681 54.0047L100.984 54.1309C101.364 54.2893 101.803 54.1981 102.089 53.9011L102.386 53.5918Z" fill="white"/>
<path d="M113.744 57.2481C114.376 56.5916 115.485 57.0533 115.464 57.9643L115.454 58.3934C115.445 58.8054 115.689 59.181 116.07 59.3394L116.373 59.4655C117.237 59.8251 117.081 61.0931 116.156 61.2328V61.2328C115.711 61.2999 115.38 61.6767 115.37 62.1258L115.369 62.1653C115.348 63.093 114.162 63.4657 113.614 62.7169L113.246 62.2149C113.027 61.9145 112.658 61.7611 112.29 61.8167L111.675 61.9097C110.757 62.0483 110.186 60.9443 110.83 60.2757L110.857 60.2473C111.169 59.9236 111.203 59.4228 110.937 59.0603V59.0603C110.385 58.3054 111.175 57.3014 112.038 57.661L112.341 57.7871C112.722 57.9455 113.16 57.8543 113.446 57.5574L113.744 57.2481Z" fill="white"/>
<path d="M91.0994 57.4864C91.7313 56.8298 92.8403 57.2916 92.8196 58.2025L92.8099 58.6317C92.8005 59.0437 93.0448 59.4193 93.4253 59.5776L93.7283 59.7038C94.592 60.0634 94.4361 61.3314 93.5111 61.4711V61.4711C93.0669 61.5382 92.7353 61.915 92.725 62.3641L92.7242 62.4035C92.7031 63.3313 91.5175 63.704 90.9693 62.9552L90.6018 62.4531C90.382 62.1528 90.0136 61.9994 89.6456 62.055L89.0303 62.1479C88.1128 62.2866 87.5419 61.1826 88.1854 60.514L88.2128 60.4855C88.5243 60.1619 88.558 59.6611 88.2927 59.2986V59.2986C87.7401 58.5437 88.5301 57.5397 89.3938 57.8993L89.6968 58.0254C90.0773 58.1838 90.5159 58.0926 90.8017 57.7957L91.0994 57.4864Z" fill="white"/>
<path d="M33.0908 131.561C33.0046 122.956 33.7145 117.983 36.2069 109.745C38.7923 101.201 41.985 94.4802 48.0497 87.9292C51.7887 83.8904 59.5999 78.3855 68.6191 75.4629C80.2182 71.7043 99.1615 72.3463 99.1615 72.3463C99.1615 72.3463 120.354 71.7858 130.951 74.8396C141.547 77.8934 148.171 79.4813 156.507 87.9292C163.315 94.8299 167.134 100.555 170.22 109.745C173.305 118.935 174.583 126.575 174.583 130.938" stroke="#FFAF80" stroke-width="4" stroke-linecap="round"/>
<g filter="url(#filter1_d_1761_8317)">
<rect x="82.9531" y="15.9121" width="8.61206" height="27.808" rx="4.30603" transform="rotate(-45.5117 82.9531 15.9121)" fill="#FF5F00"/>
<rect x="126.973" y="-1.20508" width="8.61206" height="42.9774" rx="4.30603" transform="rotate(43.6621 126.973 -1.20508)" fill="#FF5F00"/>
</g>
<path d="M103.327 131.795C111.624 131.645 126.392 121.619 119.214 117.361C115.943 115.421 113.03 118.871 104.831 119.564C96.8327 120.24 88.3397 115.597 87.229 119.26C84.8887 126.979 95.4275 131.937 103.327 131.795Z" fill="#FF5F00"/>
<path fill-rule="evenodd" clip-rule="evenodd" d="M98.9172 119.291C98.8973 119.37 98.8867 119.452 98.8867 119.537V122.523C98.8867 123.076 99.3344 123.523 99.8867 123.523H101.543C102.095 123.523 102.543 123.076 102.543 122.523V119.621C101.319 119.589 100.101 119.462 98.9172 119.291Z" fill="white"/>
<path fill-rule="evenodd" clip-rule="evenodd" d="M103.756 119.62V122.519C103.756 123.071 104.204 123.519 104.756 123.519H106.412C106.964 123.519 107.412 123.071 107.412 122.519V119.532C107.412 119.431 107.397 119.333 107.369 119.24C106.584 119.373 105.742 119.484 104.835 119.56C104.476 119.591 104.116 119.61 103.756 119.62Z" fill="white"/>
<g clip-path="url(#clip0_1761_8317)">
<path d="M226.725 136.987C226.098 138.82 225.107 140.425 223.858 141.75L218.465 148.671L218.364 148.814L213.403 147.117C212.359 146.76 211.224 147.312 210.87 148.349C210.515 149.386 211.074 150.517 212.119 150.874L215.963 152.189L206.061 166.109C204.148 168.798 199.88 167.339 200.014 164.042L200.884 142.66L200.859 133.886C200.831 133.598 200.812 133.309 200.803 133.019L206.944 135.118C207.989 135.476 209.123 134.924 209.478 133.887C209.832 132.849 209.273 131.719 208.229 131.362L201.31 128.996C201.37 128.785 201.436 128.574 201.508 128.364C203.873 121.449 211.435 117.773 218.398 120.154C225.362 122.535 229.09 130.072 226.725 136.987Z" fill="#FF5F00"/>
<path d="M221.433 111.464C221.315 110.855 221.142 110.248 220.91 109.649C219.592 106.245 216.707 103.898 213.392 103.11C211.458 105.888 210.895 109.544 212.212 112.947C213.399 116.012 215.859 118.22 218.759 119.205C221.666 120.223 224.983 119.989 227.815 118.282C230.941 116.398 232.735 113.164 232.905 109.783C229.803 108.375 226.084 108.465 222.958 110.349C222.408 110.681 221.899 111.055 221.433 111.464Z" fill="#3B879B"/>
</g>
<defs>
<filter id="filter0_d_1761_8317" x="0.15625" y="39.6777" width="203.535" height="223.316" filterUnits="userSpaceOnUse" color-interpolation-filters="sRGB">
<feFlood flood-opacity="0" result="BackgroundImageFix"/>
<feColorMatrix in="SourceAlpha" type="matrix" values="0 0 0 0 0 0 0 0 0 0 0 0 0 0 0 0 0 0 127 0" result="hardAlpha"/>
<feOffset dy="4"/>
<feGaussianBlur stdDeviation="4"/>
<feComposite in2="hardAlpha" operator="out"/>
<feColorMatrix type="matrix" values="0 0 0 0 0 0 0 0 0 0 0 0 0 0 0 0 0 0 0.1 0"/>
<feBlend mode="normal" in2="BackgroundImageFix" result="effect1_dropShadow_1761_8317"/>
<feBlend mode="normal" in="SourceGraphic" in2="effect1_dropShadow_1761_8317" result="shape"/>
</filter>
<filter id="filter1_d_1761_8317" x="80.7363" y="0.576172" width="54.6836" height="41.4727" filterUnits="userSpaceOnUse" color-interpolation-filters="sRGB">
<feFlood flood-opacity="0" result="BackgroundImageFix"/>
<feColorMatrix in="SourceAlpha" type="matrix" values="0 0 0 0 0 0 0 0 0 0 0 0 0 0 0 0 0 0 127 0" result="hardAlpha"/>
<feOffset dy="4"/>
<feGaussianBlur stdDeviation="2"/>
<feComposite in2="hardAlpha" operator="out"/>
<feColorMatrix type="matrix" values="0 0 0 0 0 0 0 0 0 0 0 0 0 0 0 0 0 0 0.15 0"/>
<feBlend mode="normal" in2="BackgroundImageFix" result="effect1_dropShadow_1761_8317"/>
<feBlend mode="normal" in="SourceGraphic" in2="effect1_dropShadow_1761_8317" result="shape"/>
</filter>
<clipPath id="clip0_1761_8317">
<rect width="48" height="71" fill="white" transform="translate(188 98)"/>
</clipPath>
</defs>
</svg>
