<svg width="24" height="32" viewBox="0 0 24 32" fill="none" xmlns="http://www.w3.org/2000/svg">
<rect width="24" height="32" rx="8" fill="#FFB98E"/>
<path d="M15.7551 7.49985C16.1013 7.4997 16.4398 7.60225 16.7277 7.79453C17.0157 7.98681 17.2401 8.26018 17.3726 8.58005C17.5051 8.89992 17.5398 9.25191 17.4722 9.59148C17.4046 9.93105 17.2378 10.2429 16.9929 10.4877L11.2261 16.2499L16.9882 22.012C17.3165 22.3402 17.501 22.7853 17.5011 23.2494C17.5012 23.7136 17.317 24.1588 16.9888 24.4871C16.6607 24.8154 16.2156 24.9999 15.7514 25C15.2872 25.0001 14.842 24.8158 14.5137 24.4877L7.51373 17.4877C7.35111 17.3252 7.22211 17.1322 7.13409 16.9198C7.04608 16.7074 7.00077 16.4798 7.00077 16.2499C7.00077 16.0199 7.04608 15.7923 7.13409 15.5799C7.22211 15.3675 7.35111 15.1745 7.51373 15.012L14.5137 8.01202C14.6767 7.84912 14.8703 7.72003 15.0833 7.63214C15.2963 7.54424 15.5246 7.49929 15.7551 7.49985Z" fill="white"/>
</svg>
