<svg width="40" height="40" viewBox="0 0 40 40" fill="none" xmlns="http://www.w3.org/2000/svg">
<path d="M13.5 20.5C16.8359 20.5 19.625 17.7656 19.625 14.375C19.625 11.0391 16.8359 8.25 13.5 8.25C10.1094 8.25 7.375 11.0391 7.375 14.375C7.375 17.7656 10.1094 20.5 13.5 20.5ZM17.6562 22.25H17.2188C16.0703 22.7969 14.8125 23.125 13.5 23.125C12.1328 23.125 10.875 22.7969 9.72656 22.25H9.28906C5.78906 22.25 3 25.0938 3 28.5938V30.125C3 31.6016 4.14844 32.75 5.625 32.75H21.375C22.7969 32.75 24 31.6016 24 30.125V28.5938C24 25.0938 21.1562 22.25 17.6562 22.25ZM29.25 20.5C32.1484 20.5 34.5 18.1484 34.5 15.25C34.5 12.3516 32.1484 10 29.25 10C26.3516 10 24 12.3516 24 15.25C24 18.1484 26.3516 20.5 29.25 20.5ZM31.875 22.25H31.6562C30.8906 22.5234 30.0703 22.6875 29.25 22.6875C28.375 22.6875 27.5547 22.5234 26.7891 22.25H26.625C25.4766 22.25 24.4375 22.5781 23.5625 23.125C24.875 24.5469 25.75 26.4609 25.75 28.5938V30.6719C25.75 30.7812 25.6953 30.8906 25.6953 31H35.375C36.7969 31 38 29.8516 38 28.375C38 25.0391 35.2109 22.25 31.875 22.25Z" fill="#1F3A5E"/>
</svg>
