<svg width="378" height="19" viewBox="0 0 378 19" fill="none" xmlns="http://www.w3.org/2000/svg">
<line x1="-4.37114e-08" y1="9.5" x2="166" y2="9.49999" stroke="#282828"/>
<line x1="212" y1="9.5" x2="378" y2="9.49999" stroke="#282828"/>
<path d="M181.68 8.472V9.56H186.88V8.472H181.68ZM174.8 13.304V14.408H187.904V13.304H174.8ZM180.656 10.264V13.832H181.968V10.264H180.656ZM181.68 3.128V9.048H183.008V4.216H186.736V3.128H181.68ZM175.92 3.144V8.984H177.248V4.232H180.816V3.144H175.92ZM175.92 8.44V9.56H176.72C178.176 9.56 179.504 9.496 181.072 9.16L180.944 8.04C179.44 8.392 178.128 8.44 176.72 8.44H175.92ZM191.279 6.12V7.208H201.103V6.12H191.279ZM189.503 9.144V10.232H202.623V9.144H189.503ZM191.279 2.312V6.664H192.591V2.312H191.279ZM191.183 14.808V15.896H201.183V14.808H191.183ZM191.183 11.672V15.096H192.495V11.672H191.183Z" fill="#282828"/>
</svg>
