<svg width="56" height="19" viewBox="0 0 56 19" fill="none" xmlns="http://www.w3.org/2000/svg">
<path d="M16.5 2.5H1.5C0.65625 2.5 0 3.1875 0 4V15C0 15.8438 0.65625 16.5 1.5 16.5H16.5C17.3125 16.5 18 15.8438 18 15V4C18 3.1875 17.3125 2.5 16.5 2.5ZM16.5 15H1.5V4H16.5V15ZM6.5 9.5C7.59375 9.5 8.5 8.625 8.5 7.5C8.5 6.40625 7.59375 5.5 6.5 5.5C5.375 5.5 4.5 6.40625 4.5 7.5C4.5 8.625 5.375 9.5 6.5 9.5ZM3.6875 13.5H9.28125C9.6875 13.5 10 13.25 10 12.9062V12.3125C10 11.3125 9.03125 10.5 7.875 10.5C7.5625 10.5 7.3125 10.75 6.5 10.75C5.65625 10.75 5.4375 10.5 5.09375 10.5C3.9375 10.5 3 11.3125 3 12.3125V12.9062C3 13.25 3.3125 13.5 3.6875 13.5ZM11.25 11.5H14.75C14.875 11.5 15 11.4062 15 11.25V10.75C15 10.625 14.875 10.5 14.75 10.5H11.25C11.0938 10.5 11 10.625 11 10.75V11.25C11 11.4062 11.0938 11.5 11.25 11.5ZM11.25 9.5H14.75C14.875 9.5 15 9.40625 15 9.25V8.75C15 8.625 14.875 8.5 14.75 8.5H11.25C11.0938 8.5 11 8.625 11 8.75V9.25C11 9.40625 11.0938 9.5 11.25 9.5ZM11.25 7.5H14.75C14.875 7.5 15 7.40625 15 7.25V6.75C15 6.625 14.875 6.5 14.75 6.5H11.25C11.0938 6.5 11 6.625 11 6.75V7.25C11 7.40625 11.0938 7.5 11.25 7.5Z" fill="#1F3A5E"/>
<path d="M27.456 8.072V9.736H28.72C31.84 9.736 33.712 9.704 35.792 9.352L35.584 7.704C33.552 8.04 31.776 8.072 28.72 8.072H27.456ZM27.456 2.456V8.76H29.568V4.136H34.576V2.456H27.456ZM28.912 5.256V6.904H34.144V5.256H28.912ZM36.816 1.624V10.408H38.96V1.624H36.816ZM29.104 11.016V16.264H38.96V11.016H29.104ZM36.864 12.68V14.584H31.184V12.68H36.864ZM45.2148 9.208V12.456H47.3428V9.208H45.2148ZM51.7108 1.608V12.824H53.8388V1.608H51.7108ZM43.1668 14.472V16.168H54.1588V14.472H43.1668ZM43.1668 11.768V14.92H45.2948V11.768H43.1668ZM41.5668 9.848C44.2388 9.848 47.7108 9.768 50.8628 9.24L50.7348 7.72C47.6308 8.12 44.0148 8.152 41.3108 8.152L41.5668 9.848ZM48.9108 10.216V11.672H52.1748V10.216H48.9108ZM46.0788 2.12C43.9028 2.12 42.3828 3.192 42.3828 4.76C42.3828 6.344 43.9028 7.4 46.0788 7.4C48.2388 7.4 49.7587 6.344 49.7587 4.76C49.7587 3.192 48.2388 2.12 46.0788 2.12ZM46.0788 3.672C47.0548 3.672 47.7428 4.04 47.7428 4.76C47.7428 5.48 47.0548 5.848 46.0788 5.848C45.0868 5.848 44.3988 5.48 44.3988 4.76C44.3988 4.04 45.0868 3.672 46.0788 3.672Z" fill="#1F3A5E"/>
</svg>
