<svg width="97" height="19" viewBox="0 0 97 19" fill="none" xmlns="http://www.w3.org/2000/svg">
<path d="M2.5 13H0.5C0.21875 13 0 13.25 0 13.5V15.5C0 15.7812 0.21875 16 0.5 16H2.5C2.75 16 3 15.7812 3 15.5V13.5C3 13.25 2.75 13 2.5 13ZM2.5 3H0.5C0.21875 3 0 3.25 0 3.5V5.5C0 5.78125 0.21875 6 0.5 6H2.5C2.75 6 3 5.78125 3 5.5V3.5C3 3.25 2.75 3 2.5 3ZM2.5 8H0.5C0.21875 8 0 8.25 0 8.5V10.5C0 10.7812 0.21875 11 0.5 11H2.5C2.75 11 3 10.7812 3 10.5V8.5C3 8.25 2.75 8 2.5 8ZM15.5 13.5H5.5C5.21875 13.5 5 13.75 5 14V15C5 15.2812 5.21875 15.5 5.5 15.5H15.5C15.75 15.5 16 15.2812 16 15V14C16 13.75 15.75 13.5 15.5 13.5ZM15.5 3.5H5.5C5.21875 3.5 5 3.75 5 4V5C5 5.28125 5.21875 5.5 5.5 5.5H15.5C15.75 5.5 16 5.28125 16 5V4C16 3.75 15.75 3.5 15.5 3.5ZM15.5 8.5H5.5C5.21875 8.5 5 8.75 5 9V10C5 10.2812 5.21875 10.5 5.5 10.5H15.5C15.75 10.5 16 10.2812 16 10V9C16 8.75 15.75 8.5 15.5 8.5Z" fill="#1F3A5E"/>
<path d="M30.1016 3.625V15H27.7656V3.625H30.1016ZM33.6016 3.625V5.46094H24.3203V3.625H33.6016ZM33.0781 10.8594V10.6953C33.0781 10.0755 33.1667 9.50521 33.3438 8.98438C33.5208 8.45833 33.7786 8.0026 34.1172 7.61719C34.4557 7.23177 34.8724 6.93229 35.3672 6.71875C35.862 6.5 36.4297 6.39062 37.0703 6.39062C37.7109 6.39062 38.2812 6.5 38.7812 6.71875C39.2812 6.93229 39.7005 7.23177 40.0391 7.61719C40.3828 8.0026 40.6432 8.45833 40.8203 8.98438C40.9974 9.50521 41.0859 10.0755 41.0859 10.6953V10.8594C41.0859 11.474 40.9974 12.0443 40.8203 12.5703C40.6432 13.0911 40.3828 13.5469 40.0391 13.9375C39.7005 14.3229 39.2839 14.6224 38.7891 14.8359C38.2943 15.0495 37.7266 15.1562 37.0859 15.1562C36.4453 15.1562 35.875 15.0495 35.375 14.8359C34.8802 14.6224 34.4609 14.3229 34.1172 13.9375C33.7786 13.5469 33.5208 13.0911 33.3438 12.5703C33.1667 12.0443 33.0781 11.474 33.0781 10.8594ZM35.3281 10.6953V10.8594C35.3281 11.2135 35.3594 11.5443 35.4219 11.8516C35.4844 12.1589 35.5833 12.4297 35.7188 12.6641C35.8594 12.8932 36.0417 13.0729 36.2656 13.2031C36.4896 13.3333 36.763 13.3984 37.0859 13.3984C37.3984 13.3984 37.6667 13.3333 37.8906 13.2031C38.1146 13.0729 38.2943 12.8932 38.4297 12.6641C38.5651 12.4297 38.6641 12.1589 38.7266 11.8516C38.7943 11.5443 38.8281 11.2135 38.8281 10.8594V10.6953C38.8281 10.3516 38.7943 10.0286 38.7266 9.72656C38.6641 9.41927 38.5625 9.14844 38.4219 8.91406C38.2865 8.67448 38.1068 8.48698 37.8828 8.35156C37.6589 8.21615 37.388 8.14844 37.0703 8.14844C36.7526 8.14844 36.4818 8.21615 36.2578 8.35156C36.0391 8.48698 35.8594 8.67448 35.7188 8.91406C35.5833 9.14844 35.4844 9.41927 35.4219 9.72656C35.3594 10.0286 35.3281 10.3516 35.3281 10.6953ZM46.9062 9.23438V11H42.4922V9.23438H46.9062ZM53.7734 13.1562V3H56.0391V15H54L53.7734 13.1562ZM48.4297 10.875V10.7109C48.4297 10.0651 48.5026 9.47917 48.6484 8.95312C48.7943 8.42188 49.0078 7.96615 49.2891 7.58594C49.5703 7.20573 49.9167 6.91146 50.3281 6.70312C50.7396 6.49479 51.2083 6.39062 51.7344 6.39062C52.2292 6.39062 52.6615 6.49479 53.0312 6.70312C53.4062 6.91146 53.724 7.20833 53.9844 7.59375C54.25 7.97396 54.4635 8.42448 54.625 8.94531C54.7865 9.46094 54.9036 10.026 54.9766 10.6406V11C54.9036 11.5885 54.7865 12.1354 54.625 12.6406C54.4635 13.1458 54.25 13.5885 53.9844 13.9688C53.724 14.3438 53.4062 14.6354 53.0312 14.8438C52.6562 15.0521 52.2188 15.1562 51.7188 15.1562C51.1927 15.1562 50.724 15.0495 50.3125 14.8359C49.9062 14.6224 49.5625 14.3229 49.2812 13.9375C49.0052 13.5521 48.7943 13.099 48.6484 12.5781C48.5026 12.0573 48.4297 11.4896 48.4297 10.875ZM50.6797 10.7109V10.875C50.6797 11.224 50.7057 11.5495 50.7578 11.8516C50.8151 12.1536 50.9062 12.4219 51.0312 12.6562C51.1615 12.8854 51.3281 13.0651 51.5312 13.1953C51.7396 13.3203 51.9922 13.3828 52.2891 13.3828C52.6745 13.3828 52.9922 13.2969 53.2422 13.125C53.4922 12.9479 53.6823 12.7057 53.8125 12.3984C53.9479 12.0911 54.026 11.737 54.0469 11.3359V10.3125C54.0312 9.98438 53.9844 9.6901 53.9062 9.42969C53.8333 9.16406 53.724 8.9375 53.5781 8.75C53.4375 8.5625 53.2604 8.41667 53.0469 8.3125C52.8385 8.20833 52.5911 8.15625 52.3047 8.15625C52.013 8.15625 51.763 8.22396 51.5547 8.35938C51.3464 8.48958 51.1771 8.66927 51.0469 8.89844C50.9219 9.1276 50.8281 9.39844 50.7656 9.71094C50.7083 10.0182 50.6797 10.3516 50.6797 10.7109ZM57.4375 10.8594V10.6953C57.4375 10.0755 57.526 9.50521 57.7031 8.98438C57.8802 8.45833 58.138 8.0026 58.4766 7.61719C58.8151 7.23177 59.2318 6.93229 59.7266 6.71875C60.2214 6.5 60.7891 6.39062 61.4297 6.39062C62.0703 6.39062 62.6406 6.5 63.1406 6.71875C63.6406 6.93229 64.0599 7.23177 64.3984 7.61719C64.7422 8.0026 65.0026 8.45833 65.1797 8.98438C65.3568 9.50521 65.4453 10.0755 65.4453 10.6953V10.8594C65.4453 11.474 65.3568 12.0443 65.1797 12.5703C65.0026 13.0911 64.7422 13.5469 64.3984 13.9375C64.0599 14.3229 63.6432 14.6224 63.1484 14.8359C62.6536 15.0495 62.0859 15.1562 61.4453 15.1562C60.8047 15.1562 60.2344 15.0495 59.7344 14.8359C59.2396 14.6224 58.8203 14.3229 58.4766 13.9375C58.138 13.5469 57.8802 13.0911 57.7031 12.5703C57.526 12.0443 57.4375 11.474 57.4375 10.8594ZM59.6875 10.6953V10.8594C59.6875 11.2135 59.7188 11.5443 59.7812 11.8516C59.8438 12.1589 59.9427 12.4297 60.0781 12.6641C60.2188 12.8932 60.401 13.0729 60.625 13.2031C60.849 13.3333 61.1224 13.3984 61.4453 13.3984C61.7578 13.3984 62.026 13.3333 62.25 13.2031C62.474 13.0729 62.6536 12.8932 62.7891 12.6641C62.9245 12.4297 63.0234 12.1589 63.0859 11.8516C63.1536 11.5443 63.1875 11.2135 63.1875 10.8594V10.6953C63.1875 10.3516 63.1536 10.0286 63.0859 9.72656C63.0234 9.41927 62.9219 9.14844 62.7812 8.91406C62.6458 8.67448 62.4661 8.48698 62.2422 8.35156C62.0182 8.21615 61.7474 8.14844 61.4297 8.14844C61.112 8.14844 60.8411 8.21615 60.6172 8.35156C60.3984 8.48698 60.2188 8.67448 60.0781 8.91406C59.9427 9.14844 59.8438 9.41927 59.7812 9.72656C59.7188 10.0286 59.6875 10.3516 59.6875 10.6953ZM78.2656 13.1719V15H72.5391V13.1719H78.2656ZM73.2969 3.625V15H70.9531V3.625H73.2969ZM81.8438 6.54688V15H79.5859V6.54688H81.8438ZM79.4453 4.34375C79.4453 4.01562 79.5599 3.74479 79.7891 3.53125C80.0182 3.31771 80.3255 3.21094 80.7109 3.21094C81.0911 3.21094 81.3958 3.31771 81.625 3.53125C81.8594 3.74479 81.9766 4.01562 81.9766 4.34375C81.9766 4.67188 81.8594 4.94271 81.625 5.15625C81.3958 5.36979 81.0911 5.47656 80.7109 5.47656C80.3255 5.47656 80.0182 5.36979 79.7891 5.15625C79.5599 4.94271 79.4453 4.67188 79.4453 4.34375ZM88.2734 12.6641C88.2734 12.5026 88.2266 12.3568 88.1328 12.2266C88.0391 12.0964 87.8646 11.9766 87.6094 11.8672C87.3594 11.7526 86.9974 11.6484 86.5234 11.5547C86.0964 11.4609 85.6979 11.3438 85.3281 11.2031C84.9635 11.0573 84.6458 10.8828 84.375 10.6797C84.1094 10.4766 83.901 10.237 83.75 9.96094C83.599 9.67969 83.5234 9.35938 83.5234 9C83.5234 8.64583 83.599 8.3125 83.75 8C83.9062 7.6875 84.1276 7.41146 84.4141 7.17188C84.7057 6.92708 85.0599 6.73698 85.4766 6.60156C85.8984 6.46094 86.3724 6.39062 86.8984 6.39062C87.6328 6.39062 88.263 6.50781 88.7891 6.74219C89.3203 6.97656 89.7266 7.29948 90.0078 7.71094C90.2943 8.11719 90.4375 8.58073 90.4375 9.10156H88.1875C88.1875 8.88281 88.1406 8.6875 88.0469 8.51562C87.9583 8.33854 87.8177 8.20052 87.625 8.10156C87.4375 7.9974 87.1927 7.94531 86.8906 7.94531C86.6406 7.94531 86.4245 7.98958 86.2422 8.07812C86.0599 8.16146 85.9193 8.27604 85.8203 8.42188C85.7266 8.5625 85.6797 8.71875 85.6797 8.89062C85.6797 9.02083 85.7057 9.13802 85.7578 9.24219C85.8151 9.34115 85.9062 9.43229 86.0312 9.51562C86.1562 9.59896 86.3177 9.67708 86.5156 9.75C86.7188 9.81771 86.9688 9.88021 87.2656 9.9375C87.875 10.0625 88.4193 10.2266 88.8984 10.4297C89.3776 10.6276 89.7578 10.8984 90.0391 11.2422C90.3203 11.5807 90.4609 12.026 90.4609 12.5781C90.4609 12.9531 90.3776 13.2969 90.2109 13.6094C90.0443 13.9219 89.8047 14.1953 89.4922 14.4297C89.1797 14.6589 88.8047 14.8385 88.3672 14.9688C87.9349 15.0938 87.4479 15.1562 86.9062 15.1562C86.1198 15.1562 85.4531 15.0156 84.9062 14.7344C84.3646 14.4531 83.9531 14.0964 83.6719 13.6641C83.3958 13.2266 83.2578 12.7786 83.2578 12.3203H85.3906C85.401 12.6276 85.4792 12.875 85.625 13.0625C85.776 13.25 85.9661 13.3854 86.1953 13.4688C86.4297 13.5521 86.6823 13.5938 86.9531 13.5938C87.2448 13.5938 87.487 13.5547 87.6797 13.4766C87.8724 13.3932 88.0182 13.2839 88.1172 13.1484C88.2214 13.0078 88.2734 12.8464 88.2734 12.6641ZM96.0625 6.54688V8.14062H91.1406V6.54688H96.0625ZM92.3594 4.46094H94.6094V12.4531C94.6094 12.6979 94.6406 12.8854 94.7031 13.0156C94.7708 13.1458 94.8698 13.237 95 13.2891C95.1302 13.3359 95.2943 13.3594 95.4922 13.3594C95.6328 13.3594 95.7578 13.3542 95.8672 13.3438C95.9818 13.3281 96.0781 13.3125 96.1562 13.2969L96.1641 14.9531C95.9714 15.0156 95.763 15.0651 95.5391 15.1016C95.3151 15.138 95.0677 15.1562 94.7969 15.1562C94.3021 15.1562 93.8698 15.0755 93.5 14.9141C93.1354 14.7474 92.8542 14.4818 92.6562 14.1172C92.4583 13.7526 92.3594 13.2734 92.3594 12.6797V4.46094Z" fill="#1F3A5E"/>
</svg>
