<svg width="77" height="16" viewBox="0 0 77 16" fill="none" xmlns="http://www.w3.org/2000/svg">
<path d="M2.016 1.968V3.648H11.408V1.968H2.016ZM0.656 11.76V13.488H14.048V11.76H0.656ZM10.288 1.968V3.728C10.288 5.728 10.288 7.84 9.744 10.688L11.872 10.864C12.4 7.824 12.4 5.808 12.4 3.728V1.968H10.288ZM24.8628 0.591999V15.456H26.9748V0.591999H24.8628ZM26.4948 6.192V7.952H29.1188V6.192H26.4948ZM15.9668 10.272V12.016H17.2148C19.7908 12.016 21.8228 11.92 24.0628 11.52L23.8548 9.808C21.6788 10.192 19.7268 10.272 17.2148 10.272H15.9668ZM15.9508 1.856V3.552H20.6548V5.904H15.9668V10.928H18.0788V7.6H22.7668V1.856H15.9508ZM30.0775 7.808V9.488H43.5015V7.808H30.0775ZM35.8215 8.912V12.032H37.9815V8.912H35.8215ZM31.6455 13.456V15.168H42.0295V13.456H31.6455ZM31.6455 10.736V13.888H33.7895V10.736H31.6455ZM36.7815 0.879999C33.5815 0.879999 31.4535 2.08 31.4535 3.952C31.4535 5.84 33.5815 7.024 36.7815 7.024C39.9655 7.024 42.1095 5.84 42.1095 3.952C42.1095 2.08 39.9655 0.879999 36.7815 0.879999ZM36.7815 2.56C38.6535 2.56 39.8215 3.04 39.8215 3.952C39.8215 4.864 38.6535 5.328 36.7815 5.328C34.9095 5.328 33.7415 4.864 33.7415 3.952C33.7415 3.04 34.9095 2.56 36.7815 2.56ZM46.3643 7.44V9.136H56.7803V7.44H46.3643ZM44.8123 11.904V13.648H58.2203V11.904H44.8123ZM46.3643 1.824V8.144H48.4763V3.552H56.6683V1.824H46.3643ZM63.4994 7.2V8.752H76.9234V7.2H63.4994ZM65.0034 9.552V10.992H73.2274V11.728H65.0354V14.336H67.1474V13.072H75.3234V9.552H65.0034ZM65.0354 13.888V15.328H75.7394V13.888H65.0354ZM65.1474 0.848V2.272H73.1954V3.008H65.1634V5.552H67.2754V4.336H75.2914V0.848H65.1474ZM65.1634 5.104V6.544H75.5634V5.104H65.1634ZM69.1474 7.888V10.032H71.2754V7.888H69.1474Z" fill="#1F3A5E"/>
</svg>
