<svg width="16" height="18" viewBox="0 0 16 18" fill="none" xmlns="http://www.w3.org/2000/svg">
<path d="M5.80324 0.563133C5.72633 0.448839 5.5878 0.378906 5.4383 0.378906H1.32385C0.993036 0.378906 0.788705 0.700672 0.958905 0.953588L5.55529 7.78376C5.63221 7.89805 5.77074 7.96799 5.92023 7.96799H10.0347C10.3655 7.96799 10.5698 7.64622 10.3996 7.3933L5.80324 0.563133Z" fill="#C52229"/>
<path fill-rule="evenodd" clip-rule="evenodd" d="M5.43783 0H1.32338C0.661758 0 0.253094 0.643532 0.593494 1.14936L5.18988 7.97954C5.34371 8.20812 5.62078 8.34799 5.91977 8.34799H10.0342C10.6958 8.34799 11.1045 7.70446 10.7641 7.19863L6.16772 0.368453C6.01389 0.139866 5.73682 0 5.43783 0ZM5.43783 0.379454C5.58733 0.379454 5.72586 0.449387 5.80278 0.563681L10.3992 7.39385C10.5694 7.64677 10.365 7.96853 10.0342 7.96853H5.91977C5.77027 7.96853 5.63174 7.8986 5.55482 7.78431L0.958436 0.954136C0.788236 0.70122 0.992568 0.379454 1.32338 0.379454H5.43783Z" fill="#9B0F15"/>
<path d="M10.2358 0.563133C10.3127 0.448839 10.4513 0.378906 10.6008 0.378906H14.7152C15.046 0.378906 15.2504 0.700672 15.0802 0.953588L10.4838 7.78376C10.4069 7.89805 10.2683 7.96799 10.1188 7.96799H6.00437C5.67356 7.96799 5.46923 7.64622 5.63943 7.3933L10.2358 0.563133Z" fill="#F1333B"/>
<path fill-rule="evenodd" clip-rule="evenodd" d="M10.5993 0H14.7137C15.3754 0 15.784 0.643532 15.4436 1.14936L10.8472 7.97954C10.6934 8.20812 10.4163 8.34799 10.1173 8.34799H6.00289C5.34127 8.34799 4.9326 7.70446 5.273 7.19863L9.86939 0.368453C10.0232 0.139866 10.3003 0 10.5993 0ZM10.5993 0.379454C10.4498 0.379454 10.3112 0.449387 10.2343 0.563681L5.63795 7.39385C5.46775 7.64677 5.67208 7.96853 6.00289 7.96853H10.1173C10.2668 7.96853 10.4054 7.8986 10.4823 7.78431L15.0787 0.954136C15.2489 0.70122 15.0445 0.379454 14.7137 0.379454H10.5993Z" fill="#9B0F15"/>
<path d="M15.0447 11.2682C15.0447 14.729 11.8981 17.5345 8.01649 17.5345C4.13492 17.5345 0.988281 14.729 0.988281 11.2682C0.988281 7.80747 4.13492 5.00195 8.01649 5.00195C11.8981 5.00195 15.0447 7.80747 15.0447 11.2682Z" fill="#BCCCD2"/>
<path fill-rule="evenodd" clip-rule="evenodd" d="M15.5683 11.2695C15.5683 14.9867 12.1886 18 8.01952 18C3.85042 18 0.470703 14.9867 0.470703 11.2695C0.470703 7.55239 3.85042 4.53906 8.01952 4.53906C12.1886 4.53906 15.5683 7.55239 15.5683 11.2695ZM8.01952 17.5358C11.9011 17.5358 15.0477 14.7303 15.0477 11.2695C15.0477 7.80875 11.9011 5.00323 8.01952 5.00323C4.13795 5.00323 0.991311 7.80875 0.991311 11.2695C0.991311 14.7303 4.13795 17.5358 8.01952 17.5358Z" fill="#81A5B0"/>
<path fill-rule="evenodd" clip-rule="evenodd" d="M1.51139 11.502C1.36763 11.502 1.25109 11.398 1.25109 11.2699C1.25109 7.93727 4.28118 5.23566 8.01899 5.23566C8.16276 5.23566 8.2793 5.33957 8.2793 5.46774C8.2793 5.59592 8.16276 5.69983 8.01899 5.69983C4.56871 5.69983 1.7717 8.19362 1.7717 11.2699C1.7717 11.398 1.65516 11.502 1.51139 11.502Z" fill="#D0DEE3"/>
<path fill-rule="evenodd" clip-rule="evenodd" d="M14.5277 11.0391C14.6714 11.0391 14.788 11.143 14.788 11.2711C14.788 14.6037 11.7579 17.3054 8.02007 17.3054C7.87631 17.3054 7.75977 17.2014 7.75977 17.0733C7.75977 16.9451 7.87631 16.8412 8.02007 16.8412C11.4704 16.8412 14.2674 14.3474 14.2674 11.2711C14.2674 11.143 14.3839 11.0391 14.5277 11.0391Z" fill="#A2B9C1"/>
<path d="M13.2266 11.2706C13.2266 13.8341 10.8958 15.9123 8.02053 15.9123C5.14529 15.9123 2.81445 13.8341 2.81445 11.2706C2.81445 8.70707 5.14529 6.62891 8.02053 6.62891C10.8958 6.62891 13.2266 8.70707 13.2266 11.2706Z" fill="#C7D4D8"/>
<path fill-rule="evenodd" clip-rule="evenodd" d="M13.7483 11.2719C13.7483 14.0918 11.1844 16.3778 8.02161 16.3778C4.85885 16.3778 2.29492 14.0918 2.29492 11.2719C2.29492 8.45199 4.85885 6.16602 8.02161 6.16602C11.1844 6.16602 13.7483 8.45199 13.7483 11.2719ZM8.02161 15.9136C10.8968 15.9136 13.2277 13.8354 13.2277 11.2719C13.2277 8.70835 10.8968 6.63019 8.02161 6.63019C5.14637 6.63019 2.81553 8.70835 2.81553 11.2719C2.81553 13.8354 5.14637 15.9136 8.02161 15.9136Z" fill="#81A5B0"/>
<path fill-rule="evenodd" clip-rule="evenodd" d="M8.01712 15.2155C10.4611 15.2155 12.4423 13.4491 12.4423 11.2701C12.4423 11.1419 12.5588 11.038 12.7026 11.038C12.8463 11.038 12.9629 11.1419 12.9629 11.2701C12.9629 13.7054 10.7486 15.6797 8.01712 15.6797C7.87335 15.6797 7.75681 15.5758 7.75681 15.4476C7.75681 15.3194 7.87335 15.2155 8.01712 15.2155Z" fill="#B5C3C8"/>
<path fill-rule="evenodd" clip-rule="evenodd" d="M8.01999 7.32354C5.57604 7.32354 3.59483 9.08998 3.59483 11.269C3.59483 11.3972 3.47828 11.5011 3.33452 11.5011C3.19076 11.5011 3.07422 11.3972 3.07422 11.269C3.07422 8.83363 5.28852 6.85938 8.01999 6.85938C8.16375 6.85938 8.2803 6.96328 8.2803 7.09146C8.2803 7.21964 8.16375 7.32354 8.01999 7.32354Z" fill="#D9EAEF"/>
<path d="M10.0161 13.2416H6.3032V12.5848L8.05547 10.9197C8.29605 10.6853 8.47338 10.4807 8.58747 10.306C8.70404 10.1314 8.76232 9.9655 8.76232 9.8085C8.76232 9.594 8.70156 9.42594 8.58003 9.30431C8.4585 9.18048 8.28488 9.11856 8.05919 9.11856C7.81613 9.11856 7.62391 9.19375 7.48254 9.34412C7.34365 9.49228 7.2742 9.68798 7.2742 9.93123H6.19531C6.19531 9.63712 6.27344 9.36844 6.42969 9.1252C6.58842 8.88195 6.81164 8.69178 7.09935 8.55467C7.38705 8.41536 7.7132 8.3457 8.07779 8.3457C8.63583 8.3457 9.06863 8.46511 9.37617 8.70394C9.6862 8.94276 9.84121 9.27999 9.84121 9.71562C9.84121 9.95445 9.77177 10.1977 9.63287 10.4454C9.49398 10.693 9.25588 10.9816 8.91858 11.3111L7.68716 12.4687H10.0161V13.2416Z" fill="#D9EAEF"/>
<path fill-rule="evenodd" clip-rule="evenodd" d="M10.6531 13.2432C10.6531 13.5559 10.3688 13.8093 10.0182 13.8093H6.30532C5.95466 13.8093 5.67039 13.5559 5.67039 13.2432V12.5865C5.67039 12.4426 5.73185 12.3041 5.84229 12.1991L7.59178 10.5366C7.81552 10.3184 7.959 10.1482 8.0409 10.0228L8.04392 10.0183C8.11893 9.90585 8.12951 9.83941 8.12951 9.81015C8.12951 9.74965 8.12084 9.71428 8.11456 9.69692C8.11349 9.69396 8.11249 9.6915 8.11159 9.68948C8.10144 9.68793 8.08515 9.68631 8.06131 9.68631C8.01382 9.68631 7.99391 9.69345 7.98993 9.69501C7.98743 9.69598 7.98573 9.6969 7.98388 9.69815C7.98197 9.69944 7.97775 9.70256 7.97154 9.70913C7.95071 9.73147 7.91125 9.78765 7.91125 9.93287C7.91125 10.2455 7.62698 10.499 7.27632 10.499H6.19743C5.84677 10.499 5.5625 10.2455 5.5625 9.93287C5.5625 9.54511 5.66682 9.17867 5.88084 8.8455L5.883 8.84215C6.10267 8.50552 6.41325 8.24276 6.80031 8.05795C7.19073 7.86928 7.62245 7.78125 8.07991 7.78125C8.73417 7.78125 9.33479 7.92154 9.79435 8.27796C10.2703 8.64509 10.4783 9.15232 10.4783 9.71727C10.4783 10.057 10.3788 10.3864 10.2029 10.7002C10.0269 11.0141 9.74551 11.3468 9.38965 11.6944C9.38692 11.697 9.38417 11.6997 9.38138 11.7023L9.16654 11.9043H10.0182C10.3688 11.9043 10.6531 12.1577 10.6531 12.4704V13.2432ZM7.68927 12.4704L8.9207 11.3127C9.258 10.9833 9.4961 10.6947 9.63499 10.447C9.77389 10.1993 9.84333 9.95609 9.84333 9.71727C9.84333 9.28164 9.68832 8.94441 9.37829 8.70559C9.07075 8.46676 8.63795 8.34735 8.07991 8.34735C7.71532 8.34735 7.38917 8.41701 7.10147 8.55632C6.81376 8.69342 6.59054 8.8836 6.43181 9.12684C6.38209 9.20425 6.34028 9.28422 6.30638 9.36677C6.23375 9.54365 6.19743 9.73235 6.19743 9.93287H7.27632C7.27632 9.68963 7.34577 9.49393 7.48466 9.34577C7.62603 9.1954 7.81825 9.12021 8.06131 9.12021C8.287 9.12021 8.46062 9.18213 8.58215 9.30596C8.70368 9.42759 8.76444 9.59565 8.76444 9.81015C8.76444 9.96715 8.70616 10.133 8.58959 10.3077C8.4755 10.4824 8.29816 10.6869 8.05758 10.9213L6.30532 12.5865V13.2432H10.0182V12.4704H7.68927Z" fill="#81A5B0"/>
</svg>
