<svg width="20" height="20" viewBox="0 0 20 20" fill="none" xmlns="http://www.w3.org/2000/svg">
<g clip-path="url(#clip0_1395_5919)">
<path d="M14.7674 2.5L13.5899 0.973333C13.3554 0.671505 13.0552 0.427014 12.7121 0.258378C12.3691 0.0897429 11.9922 0.00138587 11.6099 0L8.38992 0C8.00767 0.00138587 7.63075 0.0897429 7.2877 0.258378C6.94465 0.427014 6.64448 0.671505 6.40992 0.973333L5.23242 2.5H14.7674Z" fill="white"/>
<path d="M9.99934 15.0006C11.8403 15.0006 13.3327 13.5083 13.3327 11.6673C13.3327 9.82637 11.8403 8.33398 9.99934 8.33398C8.1584 8.33398 6.66602 9.82637 6.66602 11.6673C6.66602 13.5083 8.1584 15.0006 9.99934 15.0006Z" fill="white"/>
<path d="M15.8333 4.16602H4.16667C3.062 4.16734 2.00296 4.60675 1.22185 5.38786C0.440735 6.16898 0.00132321 7.22802 0 8.33268L0 15.8327C0.00132321 16.9373 0.440735 17.9964 1.22185 18.7775C2.00296 19.5586 3.062 19.998 4.16667 19.9993H15.8333C16.938 19.998 17.997 19.5586 18.7782 18.7775C19.5593 17.9964 19.9987 16.9373 20 15.8327V8.33268C19.9987 7.22802 19.5593 6.16898 18.7782 5.38786C17.997 4.60675 16.938 4.16734 15.8333 4.16602ZM10 16.666C9.01109 16.666 8.04439 16.3728 7.22215 15.8233C6.3999 15.2739 5.75904 14.493 5.3806 13.5794C5.00216 12.6658 4.90315 11.6605 5.09607 10.6906C5.289 9.72065 5.7652 8.82974 6.46447 8.13048C7.16373 7.43121 8.05464 6.95501 9.02455 6.76209C9.99445 6.56916 10.9998 6.66818 11.9134 7.04661C12.827 7.42505 13.6079 8.06591 14.1573 8.88816C14.7068 9.7104 15 10.6771 15 11.666C14.9987 12.9917 14.4715 14.2627 13.5341 15.2001C12.5967 16.1375 11.3257 16.6647 10 16.666Z" fill="white"/>
</g>
<defs>
<clipPath id="clip0_1395_5919">
<rect width="20" height="20" fill="white"/>
</clipPath>
</defs>
</svg>
