<svg width="40" height="40" viewBox="0 0 40 40" fill="none" xmlns="http://www.w3.org/2000/svg">
<path d="M12.7194 19.4085C12.7194 20.0302 12.4724 20.6264 12.0328 21.066C11.5932 21.5056 10.997 21.7526 10.3753 21.7526C9.75364 21.7526 9.15741 21.5056 8.71781 21.066C8.27821 20.6264 8.03125 20.0302 8.03125 19.4085C8.03125 18.7868 8.27821 18.1906 8.71781 17.751C9.15741 17.3114 9.75364 17.0645 10.3753 17.0645C10.997 17.0645 11.5932 17.3114 12.0328 17.751C12.4724 18.1906 12.7194 18.7868 12.7194 19.4085ZM22.0957 19.4085C22.0957 20.0302 21.8487 20.6264 21.4091 21.066C20.9695 21.5056 20.3733 21.7526 19.7516 21.7526C19.1299 21.7526 18.5337 21.5056 18.0941 21.066C17.6545 20.6264 17.4075 20.0302 17.4075 19.4085C17.4075 18.7868 17.6545 18.1906 18.0941 17.751C18.5337 17.3114 19.1299 17.0645 19.7516 17.0645C20.3733 17.0645 20.9695 17.3114 21.4091 17.751C21.8487 18.1906 22.0957 18.7868 22.0957 19.4085ZM29.1279 21.7526C29.7496 21.7526 30.3458 21.5056 30.7854 21.066C31.225 20.6264 31.472 20.0302 31.472 19.4085C31.472 18.7868 31.225 18.1906 30.7854 17.751C30.3458 17.3114 29.7496 17.0645 29.1279 17.0645C28.5062 17.0645 27.91 17.3114 27.4704 17.751C27.0308 18.1906 26.7838 18.7868 26.7838 19.4085C26.7838 20.0302 27.0308 20.6264 27.4704 21.066C27.91 21.5056 28.5062 21.7526 29.1279 21.7526Z" fill="#1F3A5E"/>
<path d="M6.07492 37.6993L6.1218 37.6899C10.4114 36.839 13.0321 35.7162 14.251 35.0997C16.0456 35.5784 17.8953 35.8195 19.7526 35.817C30.1087 35.817 38.5051 28.4707 38.5051 19.4085C38.5051 10.3463 30.1087 3 19.7526 3C9.39647 3 1 10.3463 1 19.4085C1 23.5341 2.74165 27.308 5.61782 30.1912C5.4166 32.0433 5.0045 33.8663 4.38953 35.6248L4.3825 35.6506C4.20773 36.1542 4.01698 36.6522 3.81054 37.1437C3.62536 37.5797 3.984 38.0673 4.45047 37.9923C4.99351 37.9034 5.53506 37.8058 6.07492 37.6993ZM7.95017 30.4139C7.98301 30.0707 7.93974 29.7245 7.82346 29.4C7.70717 29.0755 7.52073 28.7806 7.27742 28.5363C4.79271 26.0422 3.34407 22.8496 3.34407 19.4085C3.34407 11.9262 10.3857 5.34407 19.7526 5.34407C29.1195 5.34407 36.1611 11.9262 36.1611 19.4085C36.1611 26.8931 29.1195 33.4729 19.7526 33.4729C18.1002 33.4753 16.4547 33.261 14.8582 32.8353C14.3002 32.6858 13.7067 32.7476 13.1915 33.0088C12.2844 33.4682 10.2849 34.3449 7.01723 35.1021C7.4731 33.5717 7.78543 32.0022 7.95017 30.4139Z" fill="#1F3A5E"/>
</svg>
