<svg width="120" height="40" viewBox="0 0 120 40" fill="none" xmlns="http://www.w3.org/2000/svg">
<rect width="120" height="40" rx="8" fill="#1F3A5E"/>
<path d="M49.5162 19.938V21.394H50.6222C53.3522 21.394 54.9902 21.366 56.8102 21.058L56.6282 19.616C54.8502 19.91 53.2962 19.938 50.6222 19.938H49.5162ZM49.5162 15.024V20.54H51.3642V16.494H55.7462V15.024H49.5162ZM50.7902 17.474V18.916H55.3682V17.474H50.7902ZM57.7062 14.296V21.982H59.5822V14.296H57.7062ZM50.9582 22.514V27.106H59.5822V22.514H50.9582ZM57.7482 23.97V25.636H52.7782V23.97H57.7482ZM65.0551 20.932V23.774H66.9171V20.932H65.0551ZM70.7391 14.282V24.096H72.6011V14.282H70.7391ZM63.2631 25.538V27.022H72.8811V25.538H63.2631ZM63.2631 23.172V25.93H65.1251V23.172H63.2631ZM61.8631 21.492C64.2011 21.492 67.2391 21.422 69.9971 20.96L69.8851 19.63C67.1691 19.98 64.0051 20.008 61.6391 20.008L61.8631 21.492ZM68.2891 21.814V23.088H71.1451V21.814H68.2891ZM65.8111 14.73C63.9071 14.73 62.5771 15.668 62.5771 17.04C62.5771 18.426 63.9071 19.35 65.8111 19.35C67.7011 19.35 69.0311 18.426 69.0311 17.04C69.0311 15.668 67.7011 14.73 65.8111 14.73ZM65.8111 16.088C66.6651 16.088 67.2671 16.41 67.2671 17.04C67.2671 17.67 66.6651 17.992 65.8111 17.992C64.9431 17.992 64.3411 17.67 64.3411 17.04C64.3411 16.41 64.9431 16.088 65.8111 16.088ZM77.472 14.954V16.13C77.472 17.81 76.576 19.462 74.42 20.148L75.358 21.632C77.864 20.806 78.984 18.622 78.984 16.13V14.954H77.472ZM77.85 14.954V16.298C77.85 18.636 78.942 20.694 81.35 21.464L82.26 20.008C80.216 19.364 79.348 17.852 79.348 16.298V14.954H77.85ZM82.904 14.282V22.108H84.766V14.282H82.904ZM84.248 17.432V18.972H86.488V17.432H84.248ZM76.114 22.654V24.152H82.904V27.246H84.766V22.654H76.114ZM96.8049 14.282V27.246H98.5689V14.282H96.8049ZM92.5349 18.706V20.218H94.6769V18.706H92.5349ZM94.1869 14.492V26.658H95.9229V14.492H94.1869ZM89.7349 16.396V17.726C89.7349 19.938 89.0769 22.262 87.1729 23.452L88.2789 24.824C90.3369 23.536 91.1349 20.638 91.1349 17.726V16.396H89.7349ZM90.1549 16.396V17.726C90.1549 20.582 90.9109 23.298 92.9689 24.516L94.0609 23.158C92.1849 22.066 91.5409 19.882 91.5409 17.726V16.396H90.1549ZM87.6629 15.584V17.082H93.4449V15.584H87.6629Z" fill="white"/>
<path d="M23.6214 21.2858C26.0357 21.2858 27.9929 19.3287 27.9929 16.9144C27.9929 14.5001 26.0357 12.543 23.6214 12.543C21.2072 12.543 19.25 14.5001 19.25 16.9144C19.25 19.3287 21.2072 21.2858 23.6214 21.2858Z" fill="white"/>
<path d="M26.4562 21.5H20.5938C19.641 21.5011 18.7276 21.8539 18.0539 22.4812C17.3802 23.1085 17.0012 23.9589 17 24.846V28.25H30.05V24.846C30.0488 23.9589 29.6698 23.1085 28.9961 22.4812C28.3224 21.8539 27.409 21.5011 26.4562 21.5Z" fill="white"/>
<rect width="5.85" height="1.35" transform="translate(29.1504 18.6504)" fill="white"/>
</svg>
