<svg width="106" height="19" viewBox="0 0 106 19" fill="none" xmlns="http://www.w3.org/2000/svg">
<path d="M16.2188 5.5L14.7188 4.03125C14.4062 3.71875 13.9688 3.5 13.5 3.5H6.40625C5.9375 3.5 5.5 3.6875 5.15625 4.03125L3.6875 5.5H0V13.5H2C2.53125 13.5 2.96875 13.0625 2.96875 12.5H3.28125L5.90625 14.9062C6.875 15.6875 8.21875 15.6875 9.21875 15.0312C9.59375 15.3438 10.0312 15.5 10.5 15.5C11.0625 15.5 11.5938 15.2812 12.0312 14.75C12.7188 15.0312 13.5312 14.8438 14.0312 14.25L14.8438 13.2188C15 13 15.125 12.7812 15.1875 12.5H17C17 13.0625 17.4375 13.5 18 13.5H20V5.5H16.2188ZM1.5 12.5C1.21875 12.5 1 12.2812 1 12C1 11.7188 1.21875 11.5 1.5 11.5C1.75 11.5 2 11.7188 2 12C2 12.2812 1.75 12.5 1.5 12.5ZM13.6875 12.2812L12.8438 13.2812C12.7812 13.4062 12.625 13.4062 12.5 13.3438L11.75 12.7188L10.8125 13.875C10.625 14.0938 10.3438 14 10.25 13.9375L9.09375 12.9688L8.625 13.5625C8.1875 14.0938 7.40625 14.1562 6.90625 13.75L3.84375 11H3V7H4.28125L6.21875 5.09375C6.28125 5.0625 6.34375 5.03125 6.40625 5H8.1875L6.96875 6.125C6.03125 6.96875 6 8.375 6.8125 9.28125C7.28125 9.78125 8.75 10.5625 10 9.4375L10.25 9.1875L13.625 11.9375C13.75 12.0312 13.75 12.1875 13.6875 12.2812ZM17 11H14.8125C14.75 10.9375 14.6562 10.8438 14.5938 10.7812L11.375 8.15625L11.75 7.8125C11.9688 7.625 11.9688 7.3125 11.7812 7.09375L11.4688 6.75C11.2812 6.53125 10.9375 6.53125 10.75 6.71875L9.03125 8.28125C8.71875 8.5625 8.21875 8.59375 7.9375 8.28125C7.65625 7.96875 7.6875 7.5 7.96875 7.21875L10.0312 5.34375C10.25 5.125 10.5625 5.03125 10.875 5.03125L13.5 5C13.5625 5 13.625 5.03125 13.6562 5.09375L15.5938 7H17V11ZM18.5 12.5C18.2188 12.5 18 12.2812 18 12C18 11.7188 18.2188 11.5 18.5 11.5C18.75 11.5 19 11.7188 19 12C19 12.2812 18.75 12.5 18.5 12.5Z" fill="#1F3A5E"/>
<path d="M30.016 2.968V4.648H39.408V2.968H30.016ZM28.656 12.76V14.488H42.048V12.76H28.656ZM38.288 2.968V4.728C38.288 6.728 38.288 8.84 37.744 11.688L39.872 11.864C40.4 8.824 40.4 6.808 40.4 4.728V2.968H38.288ZM52.8628 1.592V16.456H54.9748V1.592H52.8628ZM54.4948 7.192V8.952H57.1188V7.192H54.4948ZM43.9668 11.272V13.016H45.2148C47.7908 13.016 49.8228 12.92 52.0628 12.52L51.8548 10.808C49.6788 11.192 47.7268 11.272 45.2148 11.272H43.9668ZM43.9508 2.856V4.552H48.6548V6.904H43.9668V11.928H46.0788V8.6H50.7668V2.856H43.9508ZM58.0775 8.808V10.488H71.5015V8.808H58.0775ZM63.8215 9.912V13.032H65.9815V9.912H63.8215ZM59.6455 14.456V16.168H70.0295V14.456H59.6455ZM59.6455 11.736V14.888H61.7895V11.736H59.6455ZM64.7815 1.88C61.5815 1.88 59.4535 3.08 59.4535 4.952C59.4535 6.84 61.5815 8.024 64.7815 8.024C67.9655 8.024 70.1095 6.84 70.1095 4.952C70.1095 3.08 67.9655 1.88 64.7815 1.88ZM64.7815 3.56C66.6535 3.56 67.8215 4.04 67.8215 4.952C67.8215 5.864 66.6535 6.328 64.7815 6.328C62.9095 6.328 61.7415 5.864 61.7415 4.952C61.7415 4.04 62.9095 3.56 64.7815 3.56ZM74.3643 8.44V10.136H84.7803V8.44H74.3643ZM72.8123 12.904V14.648H86.2203V12.904H72.8123ZM74.3643 2.824V9.144H76.4763V4.552H84.6683V2.824H74.3643ZM91.4994 8.2V9.752H104.923V8.2H91.4994ZM93.0034 10.552V11.992H101.227V12.728H93.0354V15.336H95.1474V14.072H103.323V10.552H93.0034ZM93.0354 14.888V16.328H103.739V14.888H93.0354ZM93.1474 1.848V3.272H101.195V4.008H93.1634V6.552H95.2754V5.336H103.291V1.848H93.1474ZM93.1634 6.104V7.544H103.563V6.104H93.1634ZM97.1474 8.888V11.032H99.2754V8.888H97.1474Z" fill="#1F3A5E"/>
</svg>
