<svg width="83" height="20" viewBox="0 0 83 20" fill="none" xmlns="http://www.w3.org/2000/svg">
<path d="M4.4 11.616V14.016H6.528V11.616H4.4ZM10.88 2.608V17.424H13.008V2.608H10.88ZM0.976 14.96C3.6 14.96 7.04 14.944 10.256 14.352L10.112 12.816C6.992 13.232 3.408 13.232 0.72 13.248L0.976 14.96ZM1.008 4.24V5.904H9.92V4.24H1.008ZM5.456 6.496C3.296 6.496 1.776 7.616 1.776 9.264C1.776 10.928 3.296 12.048 5.456 12.048C7.648 12.048 9.168 10.928 9.168 9.264C9.168 7.616 7.648 6.496 5.456 6.496ZM5.456 8.096C6.448 8.096 7.136 8.512 7.136 9.264C7.136 10.032 6.448 10.448 5.456 10.448C4.496 10.448 3.808 10.032 3.808 9.264C3.808 8.512 4.496 8.096 5.456 8.096ZM4.4 2.672V5.2H6.528V2.672H4.4ZM19.2148 10.208V13.456H21.3428V10.208H19.2148ZM25.7108 2.608V13.824H27.8388V2.608H25.7108ZM17.1668 15.472V17.168H28.1588V15.472H17.1668ZM17.1668 12.768V15.92H19.2948V12.768H17.1668ZM15.5668 10.848C18.2388 10.848 21.7108 10.768 24.8628 10.24L24.7348 8.72C21.6308 9.12 18.0148 9.152 15.3108 9.152L15.5668 10.848ZM22.9108 11.216V12.672H26.1748V11.216H22.9108ZM20.0788 3.12C17.9028 3.12 16.3828 4.192 16.3828 5.76C16.3828 7.344 17.9028 8.4 20.0788 8.4C22.2388 8.4 23.7587 7.344 23.7587 5.76C23.7587 4.192 22.2388 3.12 20.0788 3.12ZM20.0788 4.672C21.0548 4.672 21.7428 5.04 21.7428 5.76C21.7428 6.48 21.0548 6.848 20.0788 6.848C19.0868 6.848 18.3988 6.48 18.3988 5.76C18.3988 5.04 19.0868 4.672 20.0788 4.672ZM39.5495 2.592V17.408H41.6935V2.592H39.5495ZM41.1335 8.256V10H43.7415V8.256H41.1335ZM35.6615 4.128V4.496C35.6615 8.512 33.8215 11.232 29.9335 13.248L31.1175 14.864C36.0455 12.384 37.7415 8.576 37.7415 4.128H35.6615ZM30.7495 4.128V5.84H36.7495V4.128H30.7495ZM54.9723 2.608V10.576H57.1163V2.608H54.9723ZM47.2603 11.216V17.264H57.1163V11.216H55.0043V12.592H49.3563V11.216H47.2603ZM49.3563 14.224H55.0043V15.568H49.3563V14.224ZM49.0523 3.216C46.7483 3.216 45.0203 4.672 45.0203 6.72C45.0203 8.768 46.7483 10.224 49.0523 10.224C51.3563 10.224 53.0683 8.768 53.0683 6.72C53.0683 4.672 51.3563 3.216 49.0523 3.216ZM49.0523 4.976C50.1723 4.976 50.9883 5.632 50.9883 6.72C50.9883 7.824 50.1723 8.464 49.0523 8.464C47.9163 8.464 47.1003 7.824 47.1003 6.72C47.1003 5.632 47.9163 4.976 49.0523 4.976Z" fill="#282828"/>
<path d="M73.834 15.834L79.6673 10.0006L73.834 4.16732M79.6673 10.0006L66.334 10.0007L79.6673 10.0006Z" stroke="#282828" stroke-width="2" stroke-linecap="round" stroke-linejoin="round"/>
</svg>
