<svg width="294" height="31" viewBox="0 0 294 31" fill="none" xmlns="http://www.w3.org/2000/svg">
<path d="M35.96 4.856V7.376H49.04V4.856H35.96ZM42.512 8.072C39.296 8.072 37.04 9.728 37.04 12.176C37.04 14.624 39.296 16.256 42.512 16.256C45.704 16.256 47.96 14.624 47.96 12.176C47.96 9.728 45.704 8.072 42.512 8.072ZM42.512 10.472C43.928 10.472 44.912 11.048 44.912 12.176C44.912 13.28 43.928 13.856 42.512 13.856C41.072 13.856 40.112 13.28 40.112 12.176C40.112 11.048 41.072 10.472 42.512 10.472ZM50.264 2.912V16.856H53.456V2.912H50.264ZM52.568 8.648V11.24H56.408V8.648H52.568ZM38.624 17.768V20.312H50.264V25.136H53.456V17.768H38.624ZM40.904 2.792V6.296H44.096V2.792H40.904ZM60.3901 16.232V24.896H75.6061V16.232H72.4381V18.104H63.5341V16.232H60.3901ZM63.5341 20.48H72.4381V22.4H63.5341V20.48ZM58.0381 12.608V15.128H78.1261V12.608H58.0381ZM66.4621 3.152V3.824C66.4621 6.08 64.0381 8.552 59.0221 9.152L60.1501 11.624C65.8861 10.88 69.1981 7.688 69.1981 3.824V3.152H66.4621ZM66.9901 3.152V3.824C66.9901 7.664 70.2781 10.88 76.0141 11.624L77.1421 9.152C72.1501 8.552 69.7261 6.056 69.7261 3.824V3.152H66.9901ZM80.0923 14.36V16.856H100.204V14.36H80.0923ZM88.5403 11.984V15.272H91.7323V11.984H88.5403ZM82.5883 10.592V13.016H98.0683V10.592H82.5883ZM82.5883 3.464V11.96H85.7563V5.888H97.9003V3.464H82.5883ZM84.8683 7.064V9.392H97.3963V7.064H84.8683ZM90.1243 17.84C85.2283 17.84 82.3963 19.136 82.3963 21.488C82.3963 23.864 85.2283 25.136 90.1243 25.136C94.9963 25.136 97.8283 23.864 97.8283 21.488C97.8283 19.136 94.9963 17.84 90.1243 17.84ZM90.1243 20.192C93.1963 20.192 94.6123 20.576 94.6123 21.488C94.6123 22.424 93.1963 22.808 90.1243 22.808C87.0283 22.808 85.6123 22.424 85.6123 21.488C85.6123 20.576 87.0283 20.192 90.1243 20.192ZM110.762 8.768V11.312H115.274V8.768H110.762ZM110.642 14.312V16.856H115.178V14.312H110.642ZM118.298 2.912V25.136H121.346V2.912H118.298ZM113.714 3.392V24.152H116.69V3.392H113.714ZM108.698 5.528V6.176C108.698 11.552 106.898 15.248 101.882 18.296L103.682 20.528C109.874 16.88 111.77 11.84 111.77 5.528H108.698ZM103.154 5.528V8.072H109.778V5.528H103.154Z" fill="black"/>
<path d="M15.4424 5.24985C15.8628 5.2497 16.2739 5.35225 16.6235 5.54453C16.9731 5.73681 17.2456 6.01018 17.4065 6.33005C17.5675 6.64992 17.6095 7.00191 17.5275 7.34148C17.4454 7.68105 17.2429 7.99294 16.9455 8.23769L10.4486 13.5869C10.3827 13.641 10.3303 13.7054 10.2946 13.7763C10.2589 13.8472 10.2405 13.9231 10.2405 13.9999C10.2405 14.0766 10.2589 14.1526 10.2946 14.2234C10.3303 14.2943 10.3827 14.3587 10.4486 14.4129L16.9398 19.762C17.3385 20.0902 17.5625 20.5353 17.5626 20.9994C17.5628 21.4636 17.339 21.9088 16.9405 22.2371C16.5421 22.5654 16.0016 22.7499 15.4379 22.75C14.8743 22.7501 14.3337 22.5658 13.9351 22.2377L7.43823 16.8874C6.50998 16.1208 5.98871 15.0824 5.98871 13.9999C5.98872 12.9173 6.50998 11.8789 7.43823 11.1124L13.9351 5.76202C14.133 5.59912 14.368 5.47003 14.6267 5.38214C14.8854 5.29424 15.1626 5.24929 15.4424 5.24985Z" fill="#1F3A5E"/>
<path d="M25.3584 5.24985C25.7788 5.2497 26.1899 5.35225 26.5395 5.54453C26.8891 5.73681 27.1617 6.01018 27.3226 6.33005C27.4835 6.64992 27.5256 7.00191 27.4435 7.34148C27.3614 7.68105 27.1589 7.99294 26.8615 8.23769L19.8589 13.9999L26.8558 19.762C27.2545 20.0902 27.4785 20.5353 27.4786 20.9994C27.4788 21.4636 27.255 21.9088 26.8565 22.2371C26.4581 22.5654 25.9176 22.7499 25.354 22.75C24.7903 22.7501 24.2497 22.5658 23.8511 22.2377L15.3511 15.2377C15.1536 15.0752 14.997 14.8822 14.8901 14.6698C14.7832 14.4574 14.7282 14.2298 14.7282 13.9999C14.7282 13.7699 14.7832 13.5423 14.8901 13.3299C14.997 13.1175 15.1536 12.9245 15.3511 12.762L23.8511 5.76202C24.049 5.59912 24.284 5.47003 24.5427 5.38214C24.8014 5.29424 25.0786 5.24929 25.3584 5.24985Z" fill="#1F3A5E"/>
</svg>
