<svg width="28" height="28" viewBox="0 0 28 28" fill="none" xmlns="http://www.w3.org/2000/svg">
<rect width="28" height="28" fill="white" fill-opacity="0.01"/>
<path fill-rule="evenodd" clip-rule="evenodd" d="M24 14C24 19.5228 19.5228 24 14 24C8.47715 24 4 19.5228 4 14C4 8.47715 8.47715 4 14 4C19.5228 4 24 8.47715 24 14ZM10.294 12.27L13.288 9.29297C13.4772 9.10519 13.7329 8.99982 13.9995 8.99982C14.2661 8.99982 14.5218 9.10519 14.711 9.29297L17.705 12.27C17.7984 12.3627 17.8725 12.473 17.923 12.5945C17.9736 12.7161 17.9996 12.8464 17.9996 12.978C17.9996 13.1096 17.9736 13.2399 17.923 13.3614C17.8725 13.4829 17.7984 13.5932 17.705 13.686C17.5159 13.8731 17.2606 13.9781 16.9945 13.9781C16.7284 13.9781 16.4731 13.8731 16.284 13.686L15.005 12.414V18C15.005 18.552 14.555 19 14 19C13.445 19 12.994 18.552 12.994 18V12.414L11.715 13.686C11.5259 13.8731 11.2706 13.9781 11.0045 13.9781C10.7384 13.9781 10.4831 13.8731 10.294 13.686C10.1064 13.4981 10.001 13.2435 10.001 12.978C10.001 12.7125 10.1064 12.4578 10.294 12.27Z" fill="#FF5F00"/>
</svg>
