<svg width="114" height="20" viewBox="0 0 114 20" fill="none" xmlns="http://www.w3.org/2000/svg">
<path d="M4.40625 9.65625L8.625 5.4375L7.21875 4.0625L5.3125 6C5.25 6.03125 5.1875 6.0625 5.125 6.0625C5.0625 6.0625 5 6.03125 4.96875 6L4.59375 5.625C4.5 5.53125 4.5 5.375 4.59375 5.28125L6.53125 3.34375L5.46875 2.3125C5.09375 1.90625 4.46875 1.90625 4.09375 2.3125L1.28125 5.09375C0.875 5.5 0.875 6.125 1.28125 6.5L4.40625 9.65625ZM16.5312 6C17.125 5.40625 17.125 4.46875 16.5312 3.875L15.125 2.46875C14.5312 1.875 13.5938 1.875 13 2.46875L11.5625 3.90625L15.0938 7.4375L16.5312 6ZM10.875 4.59375L1.59375 13.875L1 17.25C0.90625 17.6875 1.3125 18.0938 1.75 18L5.125 17.4062L14.4062 8.125L10.875 4.59375ZM16.6875 13.5312L15.6562 12.4688L13.7188 14.4062C13.625 14.5 13.4688 14.5 13.375 14.4062L13 14.0312C12.9062 13.9375 12.9062 13.7812 13 13.6875L14.9375 11.7812L13.5625 10.375L9.34375 14.5938L12.5 17.7188C12.875 18.125 13.5 18.125 13.9062 17.7188L16.6875 14.9062C17.0938 14.5312 17.0938 13.9062 16.6875 13.5312Z" fill="#1F3A5E"/>
<path d="M29.224 10.46V16.476H31.352V10.46H29.224ZM36.056 2.108V16.924H38.2V2.108H36.056ZM25.848 11.356C28.552 11.356 32.008 11.308 35.24 10.732L35.128 9.18C31.976 9.612 28.344 9.628 25.592 9.628L25.848 11.356ZM33.096 12.076V13.676H36.488V12.076H33.096ZM30.392 2.716C28.184 2.716 26.616 3.964 26.616 5.756C26.616 7.564 28.184 8.796 30.392 8.796C32.568 8.796 34.152 7.564 34.152 5.756C34.152 3.964 32.568 2.716 30.392 2.716ZM30.392 4.316C31.416 4.316 32.152 4.86 32.152 5.756C32.152 6.668 31.416 7.18 30.392 7.18C29.336 7.18 28.6 6.668 28.6 5.756C28.6 4.86 29.336 4.316 30.392 4.316ZM41.8788 3.404V5.1H51.2068V3.404H41.8788ZM40.3748 13.436V15.18H53.7668V13.436H40.3748ZM50.3108 3.404V5.116C50.3108 7.212 50.3108 9.372 49.6228 12.364L51.7188 12.556C52.4068 9.324 52.4068 7.276 52.4068 5.116V3.404H50.3108ZM50.7588 7.468L41.4468 7.772L41.7028 9.484L50.7588 9.036V7.468ZM60.5815 2.956V4.028C60.5815 6.156 58.7415 8.508 55.3975 9.084L56.3095 10.844C60.1495 10.092 62.4375 7.244 62.4375 4.028V2.956H60.5815ZM61.0135 2.956V4.028C61.0135 7.292 63.2855 10.092 67.1255 10.844L68.0375 9.084C64.6775 8.508 62.8535 6.204 62.8535 4.028V2.956H61.0135ZM55.0935 13.388V15.116H68.5015V13.388H55.0935ZM80.6283 2.108V16.924H82.6603V2.108H80.6283ZM76.2923 7.5V9.372H78.2763V7.5H76.2923ZM77.6843 2.396V16.236H79.6843V2.396H77.6843ZM69.9083 3.772V5.468H76.6443V3.772H69.9083ZM69.8763 13.564C71.7003 13.564 74.7083 13.516 77.0123 13.02L76.8683 11.484C74.6283 11.788 71.5082 11.836 69.6523 11.836L69.8763 13.564ZM70.8203 4.86V12.284H72.7243V4.86H70.8203ZM73.7963 4.86V12.284H75.7163V4.86H73.7963ZM94.675 2.092V16.956H96.819V2.092H94.675ZM88.835 3.132C86.595 3.132 84.947 5.18 84.947 8.412C84.947 11.676 86.595 13.724 88.835 13.724C91.075 13.724 92.723 11.676 92.723 8.412C92.723 5.18 91.075 3.132 88.835 3.132ZM88.835 5.068C89.939 5.068 90.675 6.236 90.675 8.412C90.675 10.62 89.939 11.804 88.835 11.804C87.731 11.804 86.979 10.62 86.979 8.412C86.979 6.236 87.731 5.068 88.835 5.068ZM104.738 2.956V4.028C104.738 6.156 102.898 8.508 99.5538 9.084L100.466 10.844C104.306 10.092 106.594 7.244 106.594 4.028V2.956H104.738ZM105.17 2.956V4.028C105.17 7.292 107.442 10.092 111.282 10.844L112.194 9.084C108.834 8.508 107.01 6.204 107.01 4.028V2.956H105.17ZM99.2498 13.388V15.116H112.658V13.388H99.2498Z" fill="#1F3A5E"/>
</svg>
