<svg width="160" height="65" viewBox="0 0 160 65" fill="none" xmlns="http://www.w3.org/2000/svg">
<path d="M70.6094 40.4602C70.6094 48.4252 75.7394 52.5652 83.1194 52.5652C90.4994 52.5652 95.5844 48.4252 95.5844 40.4602V23.9902C95.5844 16.0252 90.4994 11.8852 83.1194 11.8852C75.7394 11.8852 70.6094 16.0252 70.6094 23.9902V40.4602ZM100.129 53.4202H109.039V34.7452H110.524C113.224 34.7452 114.079 32.6752 114.079 30.8302C114.079 29.0302 113.269 26.9152 110.524 26.9152H109.039V15.5302C109.039 12.6952 106.879 11.1652 104.584 11.1652C102.244 11.1652 100.129 12.6502 100.129 15.5302V53.4202ZM79.4294 23.7652C79.4294 20.7502 80.9594 19.2652 83.1194 19.2652C85.2794 19.2652 86.8094 20.7502 86.8094 23.7652V40.6852C86.8094 43.7452 85.2794 45.1852 83.1194 45.1852C80.9594 45.1852 79.4294 43.7452 79.4294 40.6852V23.7652Z" fill="#1F3A5E"/>
<path d="M156.679 53.4202C158.389 53.4202 158.974 52.0702 158.974 51.0352C158.974 49.8202 158.344 48.5602 156.679 48.5602H129.139C128.554 48.5602 128.329 48.2902 128.329 47.8402C128.329 47.4802 128.554 47.0752 129.139 47.0752H157.714V40.7302C157.714 38.0752 156.589 36.7702 152.854 36.7702H143.044V35.2402H156.364C158.659 35.2402 159.559 34.0252 159.559 32.4052C159.559 30.9202 158.704 29.5702 156.364 29.5702H120.589C118.294 29.5702 117.439 30.9202 117.439 32.4052C117.439 34.0252 118.339 35.2402 120.589 35.2402H133.954V36.7702H121.534C119.824 36.7702 119.149 38.0302 119.149 39.1552C119.149 40.2802 119.959 41.4952 121.534 41.4952H147.634C148.264 41.4952 148.444 41.6302 148.444 42.1702V42.9802H124.279C120.544 42.9802 118.699 44.7802 118.699 47.8402V48.1102C118.699 51.0802 120.589 53.4202 124.279 53.4202H156.679ZM122.659 13.6402C120.184 13.6402 119.239 14.9002 119.239 16.5202C119.239 18.1852 120.229 19.4452 122.659 19.4452H134.044C132.424 21.7402 127.879 22.7752 122.524 22.2352C120.544 22.0552 118.834 22.5952 118.429 24.4402C117.979 26.5102 119.239 28.0402 121.399 28.3102C126.304 28.8952 132.109 28.4002 136.474 26.3752C142.234 25.0252 148.174 25.5202 150.109 28.4902H159.244C157.219 21.6502 151.234 20.0302 142.234 21.0652C142.459 20.5702 142.639 20.0302 142.729 19.4452H154.339C156.769 19.4452 157.759 18.1852 157.759 16.5202C157.759 14.9002 156.814 13.6402 154.339 13.6402H143.179C142.819 11.5702 141.064 10.4902 138.589 10.4902C136.114 10.4902 134.314 11.5252 133.954 13.6402H122.659Z" fill="#1F3A5E"/>
<path fill-rule="evenodd" clip-rule="evenodd" d="M58.8179 46.2119C60.2012 46.9326 60.7485 48.6463 59.9105 49.9619C56.8654 54.7419 52.613 58.6574 47.5619 61.2991C41.674 64.3785 34.9836 65.5792 28.3924 64.7394C21.8011 63.8996 15.6256 61.0596 10.6979 56.6022C5.77023 52.1448 2.32721 46.2841 0.832729 39.8098C-0.661749 33.3355 -0.135867 26.5586 2.33952 20.3924C4.8149 14.2261 9.12084 8.96673 14.6772 5.32288C20.2335 1.67903 26.7732 -0.174202 33.4151 0.0128911C39.1131 0.173394 44.6514 1.82887 49.4835 4.7906C50.8134 5.60571 51.0726 7.38592 50.1452 8.64002C49.2177 9.89413 47.4555 10.1445 46.111 9.35382C42.2194 7.06539 37.7992 5.78712 33.2561 5.65915C27.7685 5.50458 22.3654 7.03571 17.7748 10.0463C13.1841 13.0568 9.62658 17.4021 7.58141 22.4967C5.53625 27.5913 5.10177 33.1903 6.3365 38.5394C7.57124 43.8885 10.4159 48.7306 14.4871 52.4133C18.5583 56.096 23.6605 58.4423 29.1063 59.1362C34.552 59.83 40.0795 58.838 44.9441 56.2938C48.9715 54.1875 52.3843 51.1012 54.8791 47.3386C55.741 46.0386 57.4346 45.4912 58.8179 46.2119ZM16.7617 37.585C15.0272 35.8812 15.0023 33.0939 16.7061 31.3594C18.4099 29.6249 21.1972 29.6 22.9318 31.3038L34.3107 42.4813L55.5895 20.1848C57.2681 18.4259 60.0548 18.3608 61.8137 20.0394C63.5726 21.718 63.6377 24.5047 61.9591 26.2636L37.7023 51.6805C36.1123 53.3466 33.5282 53.4929 31.765 52.0772C31.4059 51.8842 31.0678 51.6378 30.7623 51.3378L16.7617 37.585Z" fill="#FF5F00"/>
<path d="M36.5571 10.1839C37.056 9.35356 38.326 9.64676 38.4105 10.6118L38.4272 10.8028C38.4649 11.2344 38.7763 11.5926 39.1984 11.69L39.3853 11.7332C40.3292 11.9511 40.4428 13.2495 39.5511 13.628L39.3745 13.703C38.9758 13.8723 38.7313 14.2791 38.7691 14.7106L38.7858 14.9017C38.8702 15.8667 37.6704 16.376 37.0349 15.6449L36.9091 15.5002C36.6249 15.1732 36.1624 15.0664 35.7636 15.2357L35.5871 15.3106C34.6954 15.6891 33.8403 14.7055 34.3392 13.8751L34.438 13.7107C34.6611 13.3394 34.6198 12.8666 34.3355 12.5396L34.2097 12.3949C33.5742 11.6638 34.2455 10.5466 35.1894 10.7645L35.3762 10.8076C35.7984 10.9051 36.2352 10.7196 36.4584 10.3483L36.5571 10.1839Z" fill="#FF5F00"/>
<path d="M23.1287 11.9434C23.0611 10.9771 24.2696 10.4888 24.8923 11.2309L25.0155 11.3778C25.294 11.7097 25.7545 11.8245 26.1562 11.6622L26.334 11.5904C27.2322 11.2275 28.07 12.2259 27.5566 13.0475L27.455 13.2101C27.2254 13.5775 27.2585 14.0509 27.537 14.3828L27.6603 14.5297C28.283 15.2718 27.5923 16.3771 26.6523 16.1428L26.4662 16.0964C26.0459 15.9916 25.6058 16.1694 25.3763 16.5368L25.2747 16.6994C24.7613 17.5209 23.4966 17.2056 23.429 16.2392L23.4157 16.0479C23.3854 15.6157 23.0804 15.2522 22.66 15.1474L22.474 15.101C21.534 14.8666 21.4431 13.5664 22.3413 13.2035L22.5191 13.1317C22.9208 12.9694 23.1722 12.5669 23.142 12.1347L23.1287 11.9434Z" fill="#FF5F00"/>
<path d="M13.003 20.9585C12.42 20.1848 13.1676 19.1171 14.094 19.4003L14.2773 19.4564C14.6916 19.5831 15.1404 19.4286 15.3889 19.0737L15.4989 18.9166C16.0545 18.1231 17.301 18.5042 17.3179 19.4727L17.3212 19.6645C17.3288 20.0976 17.6144 20.4767 18.0287 20.6033L18.2121 20.6594C19.1385 20.9426 19.1612 22.2458 18.2453 22.5612L18.0639 22.6236C17.6543 22.7647 17.3821 23.1534 17.3897 23.5866L17.393 23.7783C17.4099 24.7469 16.1775 25.1713 15.5945 24.3976L15.4791 24.2445C15.2184 23.8985 14.7645 23.7597 14.3549 23.9008L14.1736 23.9632C13.2577 24.2786 12.4733 23.2376 13.0289 22.4441L13.1389 22.287C13.3874 21.9321 13.3791 21.4576 13.1184 21.1116L13.003 20.9585Z" fill="#FF5F00"/>
</svg>
