<svg width="120" height="40" viewBox="0 0 120 40" fill="none" xmlns="http://www.w3.org/2000/svg">
<rect width="120" height="40" rx="20" fill="#1F3A5E"/>
<path d="M48.5162 18.938V20.394H49.6222C52.3522 20.394 53.9902 20.366 55.8102 20.058L55.6282 18.616C53.8502 18.91 52.2962 18.938 49.6222 18.938H48.5162ZM48.5162 14.024V19.54H50.3642V15.494H54.7462V14.024H48.5162ZM49.7902 16.474V17.916H54.3682V16.474H49.7902ZM56.7062 13.296V20.982H58.5822V13.296H56.7062ZM49.9582 21.514V26.106H58.5822V21.514H49.9582ZM56.7482 22.97V24.636H51.7782V22.97H56.7482ZM64.0551 19.932V22.774H65.9171V19.932H64.0551ZM69.7391 13.282V23.096H71.6011V13.282H69.7391ZM62.2631 24.538V26.022H71.8811V24.538H62.2631ZM62.2631 22.172V24.93H64.1251V22.172H62.2631ZM60.8631 20.492C63.2011 20.492 66.2391 20.422 68.9971 19.96L68.8851 18.63C66.1691 18.98 63.0051 19.008 60.6391 19.008L60.8631 20.492ZM67.2891 20.814V22.088H70.1451V20.814H67.2891ZM64.8111 13.73C62.9071 13.73 61.5771 14.668 61.5771 16.04C61.5771 17.426 62.9071 18.35 64.8111 18.35C66.7011 18.35 68.0311 17.426 68.0311 16.04C68.0311 14.668 66.7011 13.73 64.8111 13.73ZM64.8111 15.088C65.6651 15.088 66.2671 15.41 66.2671 16.04C66.2671 16.67 65.6651 16.992 64.8111 16.992C63.9431 16.992 63.3411 16.67 63.3411 16.04C63.3411 15.41 63.9431 15.088 64.8111 15.088ZM76.472 13.954V15.13C76.472 16.81 75.576 18.462 73.42 19.148L74.358 20.632C76.864 19.806 77.984 17.622 77.984 15.13V13.954H76.472ZM76.85 13.954V15.298C76.85 17.636 77.942 19.694 80.35 20.464L81.26 19.008C79.216 18.364 78.348 16.852 78.348 15.298V13.954H76.85ZM81.904 13.282V21.108H83.766V13.282H81.904ZM83.248 16.432V17.972H85.488V16.432H83.248ZM75.114 21.654V23.152H81.904V26.246H83.766V21.654H75.114ZM95.8049 13.282V26.246H97.5689V13.282H95.8049ZM91.5349 17.706V19.218H93.6769V17.706H91.5349ZM93.1869 13.492V25.658H94.9229V13.492H93.1869ZM88.7349 15.396V16.726C88.7349 18.938 88.0769 21.262 86.1729 22.452L87.2789 23.824C89.3369 22.536 90.1349 19.638 90.1349 16.726V15.396H88.7349ZM89.1549 15.396V16.726C89.1549 19.582 89.9109 22.298 91.9689 23.516L93.0609 22.158C91.1849 21.066 90.5409 18.882 90.5409 16.726V15.396H89.1549ZM86.6629 14.584V16.082H92.4449V14.584H86.6629Z" fill="white"/>
<path d="M28.0007 10.834C26.1877 10.834 24.4154 11.3716 22.9079 12.3788C21.4005 13.3861 20.2256 14.8177 19.5318 16.4927C18.838 18.1677 18.6564 20.0108 19.0101 21.789C19.3638 23.5671 20.2369 25.2005 21.5188 26.4825C22.8008 27.7644 24.4342 28.6375 26.2123 28.9912C27.9905 29.3449 29.8336 29.1634 31.5086 28.4695C33.1836 27.7757 34.6152 26.6008 35.6225 25.0934C36.6297 23.5859 37.1673 21.8136 37.1673 20.0007C37.1673 18.7969 36.9302 17.6049 36.4696 16.4927C36.0089 15.3806 35.3337 14.37 34.4825 13.5188C33.6313 12.6676 32.6207 11.9924 31.5086 11.5318C30.3964 11.0711 29.2044 10.834 28.0007 10.834ZM28.0007 27.334C26.5503 27.334 25.1324 26.9039 23.9265 26.0981C22.7205 25.2923 21.7806 24.147 21.2255 22.807C20.6705 21.467 20.5253 19.9925 20.8082 18.57C21.0912 17.1475 21.7896 15.8408 22.8152 14.8152C23.8408 13.7896 25.1475 13.0912 26.57 12.8082C27.9925 12.5253 29.467 12.6705 30.807 13.2255C32.147 13.7806 33.2923 14.7205 34.0981 15.9265C34.9039 17.1324 35.334 18.5503 35.334 20.0007C35.334 21.9456 34.5614 23.8108 33.1861 25.1861C31.8108 26.5614 29.9456 27.334 28.0007 27.334Z" fill="white"/>
<path d="M30.7507 19.084H25.2507C25.0075 19.084 24.7744 19.1806 24.6025 19.3525C24.4306 19.5244 24.334 19.7575 24.334 20.0007C24.334 20.2438 24.4306 20.4769 24.6025 20.6488C24.7744 20.8207 25.0075 20.9173 25.2507 20.9173H30.7507C30.9938 20.9173 31.2269 20.8207 31.3988 20.6488C31.5707 20.4769 31.6673 20.2438 31.6673 20.0007C31.6673 19.7575 31.5707 19.5244 31.3988 19.3525C31.2269 19.1806 30.9938 19.084 30.7507 19.084Z" fill="white"/>
</svg>
