<svg width="167" height="215" viewBox="0 0 167 215" fill="none" xmlns="http://www.w3.org/2000/svg">
<g filter="url(#filter0_d_877_4446)">
<path d="M151.501 104C151.501 141.555 190.501 210.5 83.5006 201.5C-26.4996 209.5 16.1262 141.555 16.1262 104C16.1262 66.4446 45.9453 36 83.5006 36C121.056 36 151.501 66.4446 151.501 104Z" fill="#FFF9D9"/>
</g>
<path d="M46 140.302C46 140.302 58.5042 135.123 62 140.302C65.822 145.964 53 155.302 53 155.302" stroke="#4F4F4F"/>
<path d="M123.711 140.302C123.711 140.302 111.207 135.123 107.711 140.302C103.889 145.964 116.711 155.302 116.711 155.302" stroke="#4F4F4F"/>
<circle cx="68.5" cy="79.5" r="10.5" fill="white"/>
<circle cx="70.5" cy="78.5" r="7.5" fill="#282828"/>
<circle cx="98.5" cy="79.5" r="10.5" fill="white"/>
<circle cx="100.5" cy="78.5" r="7.5" fill="#282828"/>
<path d="M27 104C33 118 52 125 86 125C114 125 130 118.438 141 105.312" stroke="#4F4F4F" stroke-width="4" stroke-linecap="round"/>
<rect x="75" y="120" width="20" height="10" rx="4" fill="#4F4F4F"/>
<path d="M151.499 104L140.999 107C136.499 56.1608 103.51 60.2756 82.9983 60.5C60.7861 60.743 30.8177 56.5 26.999 107L16.125 104C16.125 66.4446 37.499 33 82.9983 33C130.499 33 151.499 66.4446 151.499 104Z" fill="#FF5F00"/>
<path d="M83.3908 44.1494C83.9647 43.5532 84.9719 43.9725 84.9531 44.7998L84.9516 44.8649C84.944 45.1998 85.1426 45.5051 85.4519 45.6339L85.6881 45.7322C86.381 46.0207 86.256 47.0378 85.5139 47.1499C85.1576 47.2037 84.8916 47.5059 84.8834 47.8662L84.8827 47.8979C84.8657 48.6421 83.9147 48.941 83.475 48.3404L83.2237 47.997C83.0206 47.7196 82.6803 47.5779 82.3404 47.6293L81.9196 47.6928C81.1836 47.804 80.7257 46.9185 81.2419 46.3821L81.2638 46.3593C81.5137 46.0997 81.5408 45.698 81.3279 45.4072C80.8847 44.8016 81.5184 43.9963 82.2112 44.2847L82.4475 44.3831C82.7568 44.5118 83.1133 44.4377 83.3456 44.1963L83.3908 44.1494Z" fill="white"/>
<path d="M92.5099 47.083C93.0838 46.4868 94.091 46.9061 94.0722 47.7334L94.0707 47.7985C94.0631 48.1334 94.2617 48.4387 94.571 48.5675L94.8073 48.6658C95.5001 48.9543 95.3751 49.9714 94.6331 50.0835C94.2767 50.1373 94.0107 50.4395 94.0025 50.7998L94.0018 50.8315C93.9849 51.5757 93.0338 51.8746 92.5942 51.274L92.3428 50.9306C92.1397 50.6532 91.7995 50.5115 91.4596 50.5629L91.0388 50.6264C90.3027 50.7376 89.8448 49.8521 90.361 49.3157L90.383 49.2929C90.6329 49.0333 90.6599 48.6316 90.4471 48.3408C90.0038 47.7352 90.6375 46.9299 91.3303 47.2183L91.5666 47.3167C91.8759 47.4454 92.2325 47.3713 92.4648 47.1299L92.5099 47.083Z" fill="white"/>
<path d="M74.3361 47.2725C74.91 46.6762 75.9172 47.0955 75.8984 47.9229L75.8969 47.988C75.8893 48.3229 76.0879 48.6282 76.3972 48.7569L76.6335 48.8553C77.3263 49.1437 77.2013 50.1609 76.4592 50.273C76.1029 50.3268 75.8369 50.629 75.8287 50.9893L75.828 51.0209C75.8111 51.7651 74.86 52.0641 74.4203 51.4634L74.169 51.12C73.9659 50.8427 73.6256 50.701 73.2857 50.7523L72.8649 50.8159C72.1289 50.9271 71.671 50.0415 72.1872 49.5052L72.2092 49.4824C72.459 49.2227 72.4861 48.821 72.2732 48.5302C71.83 47.9247 72.4637 47.1193 73.1565 47.4078L73.3928 47.5061C73.7021 47.6349 74.0586 47.5607 74.2909 47.3194L74.3361 47.2725Z" fill="white"/>
<path d="M27.9996 106.5C27.9304 99.597 28.4999 95.6079 30.4992 89.0002C32.5732 82.146 35.1342 76.7552 39.999 71.5002C42.9983 68.2604 49.2642 63.8446 56.499 61.5002C65.8034 58.4852 80.999 59.0002 80.999 59.0002C80.999 59.0002 97.999 58.5506 106.499 61.0002C114.999 63.4498 120.313 64.7236 126.999 71.5002C132.461 77.0356 135.524 81.6283 137.999 89.0002C140.474 96.3721 141.499 102.5 141.499 106" stroke="#FFAF80" stroke-width="4" stroke-linecap="round"/>
<g filter="url(#filter1_d_877_4446)">
<rect x="68" y="13.7305" width="6.90826" height="22.3065" rx="3.45413" transform="rotate(-45.5117 68 13.7305)" fill="#FF5F00"/>
<rect x="103.316" width="6.90826" height="34.4748" rx="3.45413" transform="rotate(43.6621 103.316 0)" fill="#FF5F00"/>
</g>
<path d="M84.343 106.685C90.9983 106.565 102.844 98.5227 97.0864 95.1067C94.4631 93.5504 92.1261 96.3182 85.5491 96.874C79.1334 97.4162 72.3206 93.6917 71.4297 96.6304C69.5524 102.822 78.0062 106.799 84.343 106.685Z" fill="#FF5F00"/>
<path fill-rule="evenodd" clip-rule="evenodd" d="M80.8525 96.6641C80.8028 96.7827 80.7754 96.913 80.7754 97.0497V99.0497C80.7754 99.602 81.2231 100.05 81.7754 100.05H82.7083C83.2606 100.05 83.7083 99.602 83.7083 99.0497V97.0497C83.7083 97.0062 83.7055 96.9634 83.7001 96.9214C82.7392 96.8953 81.783 96.7974 80.8525 96.6641Z" fill="white"/>
<path fill-rule="evenodd" clip-rule="evenodd" d="M84.6957 96.9221C84.6903 96.9642 84.6875 97.0071 84.6875 97.0507V99.0507C84.6875 99.6029 85.1352 100.051 85.6875 100.051H86.6204C87.1727 100.051 87.6204 99.6029 87.6204 99.0507V97.0507C87.6204 96.8992 87.5867 96.7556 87.5265 96.627C86.9127 96.7295 86.2556 96.8146 85.5498 96.8743C85.2657 96.8983 84.9808 96.9139 84.6957 96.9221Z" fill="white"/>
<defs>
<filter id="filter0_d_877_4446" x="0" y="32" width="166.434" height="182.303" filterUnits="userSpaceOnUse" color-interpolation-filters="sRGB">
<feFlood flood-opacity="0" result="BackgroundImageFix"/>
<feColorMatrix in="SourceAlpha" type="matrix" values="0 0 0 0 0 0 0 0 0 0 0 0 0 0 0 0 0 0 127 0" result="hardAlpha"/>
<feOffset dy="4"/>
<feGaussianBlur stdDeviation="4"/>
<feComposite in2="hardAlpha" operator="out"/>
<feColorMatrix type="matrix" values="0 0 0 0 0 0 0 0 0 0 0 0 0 0 0 0 0 0 0.1 0"/>
<feBlend mode="normal" in2="BackgroundImageFix" result="effect1_dropShadow_877_4446"/>
<feBlend mode="normal" in="SourceGraphic" in2="effect1_dropShadow_877_4446" result="shape"/>
</filter>
<filter id="filter1_d_877_4446" x="65.4297" y="1.42969" width="45.4551" height="34.8496" filterUnits="userSpaceOnUse" color-interpolation-filters="sRGB">
<feFlood flood-opacity="0" result="BackgroundImageFix"/>
<feColorMatrix in="SourceAlpha" type="matrix" values="0 0 0 0 0 0 0 0 0 0 0 0 0 0 0 0 0 0 127 0" result="hardAlpha"/>
<feOffset dy="4"/>
<feGaussianBlur stdDeviation="2"/>
<feComposite in2="hardAlpha" operator="out"/>
<feColorMatrix type="matrix" values="0 0 0 0 0 0 0 0 0 0 0 0 0 0 0 0 0 0 0.15 0"/>
<feBlend mode="normal" in2="BackgroundImageFix" result="effect1_dropShadow_877_4446"/>
<feBlend mode="normal" in="SourceGraphic" in2="effect1_dropShadow_877_4446" result="shape"/>
</filter>
</defs>
</svg>
