<svg width="131" height="31" viewBox="0 0 131 31" fill="none" xmlns="http://www.w3.org/2000/svg">
<path d="M20.3139 10.0039V11.4739H27.9439V10.0039H20.3139ZM24.1359 11.8799C22.2599 11.8799 20.9439 12.8459 20.9439 14.2739C20.9439 15.7019 22.2599 16.6539 24.1359 16.6539C25.9979 16.6539 27.3139 15.7019 27.3139 14.2739C27.3139 12.8459 25.9979 11.8799 24.1359 11.8799ZM24.1359 13.2799C24.9619 13.2799 25.5359 13.6159 25.5359 14.2739C25.5359 14.9179 24.9619 15.2539 24.1359 15.2539C23.2959 15.2539 22.7359 14.9179 22.7359 14.2739C22.7359 13.6159 23.2959 13.2799 24.1359 13.2799ZM28.6579 8.86989V17.0039H30.5199V8.86989H28.6579ZM30.0019 12.2159V13.7279H32.2419V12.2159H30.0019ZM21.8679 17.5359V19.0199H28.6579V21.8339H30.5199V17.5359H21.8679ZM23.1979 8.79989V10.8439H25.0599V8.79989H23.1979ZM34.5648 16.6399V21.6939H43.4408V16.6399H41.5928V17.7319H36.3988V16.6399H34.5648ZM36.3988 19.1179H41.5928V20.2379H36.3988V19.1179ZM33.1928 14.5259V15.9959H44.9108V14.5259H33.1928ZM38.1068 9.00989V9.40189C38.1068 10.7179 36.6928 12.1599 33.7668 12.5099L34.4248 13.9519C37.7708 13.5179 39.7028 11.6559 39.7028 9.40189V9.00989H38.1068ZM38.4148 9.00989V9.40189C38.4148 11.6419 40.3328 13.5179 43.6788 13.9519L44.3368 12.5099C41.4248 12.1599 40.0108 10.7039 40.0108 9.40189V9.00989H38.4148ZM49.544 15.5479V17.0039H61.276V15.5479H49.544ZM54.472 14.1619V16.0799H56.334V14.1619H54.472ZM51 13.3499V14.7639H60.03V13.3499H51ZM51 9.19189V14.1479H52.848V10.6059H59.932V9.19189H51ZM52.33 11.2919V12.6499H59.638V11.2919H52.33ZM55.396 17.5779C52.54 17.5779 50.888 18.3339 50.888 19.7059C50.888 21.0919 52.54 21.8339 55.396 21.8339C58.238 21.8339 59.89 21.0919 59.89 19.7059C59.89 18.3339 58.238 17.5779 55.396 17.5779ZM55.396 18.9499C57.188 18.9499 58.014 19.1739 58.014 19.7059C58.014 20.2519 57.188 20.4759 55.396 20.4759C53.59 20.4759 52.764 20.2519 52.764 19.7059C52.764 19.1739 53.59 18.9499 55.396 18.9499ZM67.435 12.2859V13.7699H70.067V12.2859H67.435ZM67.365 15.5199V17.0039H70.011V15.5199H67.365ZM71.831 8.86989V21.8339H73.609V8.86989H71.831ZM69.157 9.14989V21.2599H70.893V9.14989H69.157ZM66.231 10.3959V10.7739C66.231 13.9099 65.181 16.0659 62.255 17.8439L63.305 19.1459C66.917 17.0179 68.023 14.0779 68.023 10.3959H66.231ZM62.997 10.3959V11.8799H66.861V10.3959H62.997ZM78.8162 18.8239V20.3359H90.5482V18.8239H78.8162ZM83.7302 16.0519V19.1879H85.5922V16.0519H83.7302ZM80.0482 9.69589V16.4439H89.2742V9.69589H87.4262V11.6839H81.8962V9.69589H80.0482ZM81.8962 13.1399H87.4262V14.9599H81.8962V13.1399ZM100.613 8.86989V21.8339H102.489V8.86989H100.613ZM96.7911 10.2139V10.5499C96.7911 14.0219 95.4471 16.3739 91.7231 18.1659L92.6891 19.6499C97.2951 17.4239 98.6391 14.1759 98.6391 10.2139H96.7911ZM92.4091 10.2139V11.6839H97.6731V10.2139H92.4091Z" fill="#1F3A5E"/>
<path d="M120.553 21.4245C120.269 21.4246 119.991 21.3562 119.754 21.2279C119.518 21.0997 119.334 20.9173 119.225 20.704C119.116 20.4906 119.087 20.2558 119.143 20.0294C119.198 19.8029 119.335 19.5948 119.537 19.4316L123.932 15.8637C123.976 15.8276 124.012 15.7846 124.036 15.7374C124.06 15.6901 124.072 15.6394 124.072 15.5883C124.072 15.5371 124.06 15.4864 124.036 15.4391C124.012 15.3919 123.976 15.3489 123.932 15.3128L119.54 11.7449C119.271 11.5261 119.119 11.2292 119.119 10.9196C119.119 10.61 119.27 10.313 119.54 10.0941C119.809 9.87508 120.175 9.75203 120.556 9.75195C120.938 9.75188 121.303 9.8748 121.573 10.0937L125.968 13.6623C126.596 14.1736 126.949 14.8662 126.949 15.5883C126.949 16.3103 126.596 17.0029 125.968 17.5142L121.573 21.0828C121.439 21.1915 121.28 21.2776 121.105 21.3362C120.93 21.3948 120.743 21.4248 120.553 21.4245V21.4245Z" fill="#1F3A5E"/>
<path d="M113.846 21.4245C113.562 21.4246 113.284 21.3562 113.047 21.2279C112.811 21.0997 112.627 20.9173 112.518 20.704C112.409 20.4906 112.38 20.2558 112.436 20.0294C112.491 19.8029 112.628 19.5948 112.83 19.4316L117.567 15.5883L112.833 11.7449C112.564 11.5261 112.412 11.2292 112.412 10.9196C112.412 10.61 112.563 10.313 112.833 10.0941C113.102 9.87508 113.468 9.75203 113.849 9.75195C114.231 9.75188 114.596 9.8748 114.866 10.0937L120.616 14.7626C120.75 14.871 120.856 14.9997 120.928 15.1414C121 15.2831 121.037 15.4349 121.037 15.5883C121.037 15.7416 121 15.8934 120.928 16.0351C120.856 16.1768 120.75 16.3055 120.616 16.4139L114.866 21.0828C114.732 21.1915 114.573 21.2776 114.398 21.3362C114.223 21.3948 114.036 21.4248 113.846 21.4245V21.4245Z" fill="#1F3A5E"/>
</svg>
