<svg width="125" height="41" viewBox="0 0 125 41" fill="none" xmlns="http://www.w3.org/2000/svg">
<path d="M41.6904 19.072V20.736H42.9544C46.0744 20.736 47.9464 20.704 50.0264 20.352L49.8184 18.704C47.7864 19.04 46.0104 19.072 42.9544 19.072H41.6904ZM41.6904 13.456V19.76H43.8024V15.136H48.8104V13.456H41.6904ZM43.1464 16.256V17.904H48.3784V16.256H43.1464ZM51.0504 12.624V21.408H53.1944V12.624H51.0504ZM43.3384 22.016V27.264H53.1944V22.016H43.3384ZM51.0984 23.68V25.584H45.4184V23.68H51.0984ZM61.2251 22.096V27.44H63.3371V22.096H61.2251ZM55.6091 21.472V23.2H69.0011V21.472H55.6091ZM61.2091 15.264V15.616C61.2091 16.992 59.6251 18.672 56.2811 19.056L57.0171 20.72C60.9371 20.256 63.0811 18.096 63.0811 15.616V15.264H61.2091ZM61.4811 15.264V15.616C61.4811 18.032 63.6251 20.272 67.5291 20.72L68.2811 19.056C64.9531 18.672 63.3531 16.96 63.3531 15.616V15.264H61.4811ZM56.8091 14.304V15.984H67.7851V14.304H56.8091ZM61.2251 12.64V14.88H63.3371V12.64H61.2251ZM79.7839 12.592V27.408H81.9279V12.592H79.7839ZM81.3679 18.256V20H83.9759V18.256H81.3679ZM75.8959 14.128V14.496C75.8959 18.512 74.0559 21.232 70.1679 23.248L71.3519 24.864C76.2799 22.384 77.9759 18.576 77.9759 14.128H75.8959ZM70.9839 14.128V15.84H76.9839V14.128H70.9839ZM90.125 14.625L85.9531 26.9766H84.2812L88.4531 14.625H90.125ZM94.2961 13.376V14.72C94.2961 16.64 93.2721 18.528 90.8081 19.312L91.8801 21.008C94.7441 20.064 96.0241 17.568 96.0241 14.72V13.376H94.2961ZM94.7281 13.376V14.912C94.7281 17.584 95.9761 19.936 98.7281 20.816L99.7681 19.152C97.4321 18.416 96.4401 16.688 96.4401 14.912V13.376H94.7281ZM100.504 12.608V21.552H102.632V12.608H100.504ZM102.04 16.208V17.968H104.6V16.208H102.04ZM92.7441 22.176V23.888H100.504V27.424H102.632V22.176H92.7441ZM116.391 12.608V27.424H118.407V12.608H116.391ZM111.511 17.664V19.392H113.959V17.664H111.511ZM113.399 12.848V26.752H115.383V12.848H113.399ZM108.311 15.024V16.544C108.311 19.072 107.559 21.728 105.383 23.088L106.647 24.656C108.999 23.184 109.911 19.872 109.911 16.544V15.024H108.311ZM108.791 15.024V16.544C108.791 19.808 109.655 22.912 112.007 24.304L113.255 22.752C111.111 21.504 110.375 19.008 110.375 16.544V15.024H108.791ZM105.943 14.096V15.808H112.551V14.096H105.943Z" fill="#1F3A5E"/>
<path d="M25.2171 20.3913C27.8105 20.3913 29.9128 18.289 29.9128 15.6957C29.9128 13.1023 27.8105 11 25.2171 11C22.6238 11 20.5215 13.1023 20.5215 15.6957C20.5215 18.289 22.6238 20.3913 25.2171 20.3913Z" fill="#1F3A5E"/>
<path d="M14.7835 20.3913C17.3769 20.3913 19.4792 18.289 19.4792 15.6957C19.4792 13.1023 17.3769 11 14.7835 11C12.1902 11 10.0879 13.1023 10.0879 15.6957C10.0879 18.289 12.1902 20.3913 14.7835 20.3913Z" fill="#1F3A5E"/>
<path d="M28.2651 20.3906H22.1713C21.1809 20.392 20.2314 20.8283 19.531 21.6041C18.8307 22.3798 18.4367 23.4316 18.4355 24.5286V28.7385H32.0008V24.5286C31.9996 23.4316 31.6056 22.3798 30.9053 21.6041C30.205 20.8283 29.2555 20.392 28.2651 20.3906Z" fill="#1F3A5E"/>
<path fill-rule="evenodd" clip-rule="evenodd" d="M17.3913 28.739V24.8058V24.5292C17.3925 23.4322 17.7865 22.3804 18.4868 21.6047C18.7878 21.2712 19.1349 21.0005 19.5115 20.8C19.0097 20.535 18.4559 20.3933 17.8888 20.3926H11.7582C10.7619 20.3939 9.80664 20.8303 9.1021 21.606C8.39755 22.3818 8.0012 23.4335 8 24.5306V28.7404H17.3913V28.739Z" fill="#1F3A5E"/>
</svg>
